<svg width="60" height="71" viewBox="0 0 60 71" fill="none" xmlns="http://www.w3.org/2000/svg">
<g clip-path="url(#clip0_88_953)">
<path d="M35.7715 28.5054C35.3547 28.546 34.9358 28.6152 34.519 28.6213C29.4459 28.6741 24.6404 27.3647 19.8717 25.8195C15.3053 24.3414 12.0893 25.3885 9.99512 28.9893C8.86935 30.9228 8.32179 33.0353 8.20737 35.2637C7.90294 41.1803 9.19625 46.857 11.3068 52.2938C13.6135 58.2388 16.3452 64.0192 18.891 69.8728C19.0197 70.1696 19.1586 70.4624 19.0912 70.9341C18.8358 70.7145 18.56 70.5153 18.3271 70.2733C10.7 62.3439 5.26728 53.1335 2.03503 42.6462C0.631386 38.0919 -0.145009 33.4359 0.0225286 28.668C0.132858 25.5308 0.792795 22.5054 2.57442 19.8256C4.82188 16.4465 8.15425 15.3689 12.0158 15.5458C16.4086 15.747 19.8942 18.0202 23.3246 20.4742C26.4629 22.7189 29.6808 24.8578 32.9151 26.9662C33.7712 27.5254 34.8153 27.8019 35.7735 28.2085C35.7735 28.3081 35.7735 28.4057 35.7715 28.5054Z" fill="#E02E31"/>
<path d="M43.2676 69.5292C43.1512 68.1426 42.9632 66.7559 42.9326 65.3673C42.7732 58.2633 44.0869 51.3931 46.2894 44.6571C47.454 41.095 48.5532 37.5104 49.5544 33.9015C49.8445 32.8585 49.8241 31.6792 49.7076 30.5874C49.4481 28.1781 48.116 26.7955 45.6969 26.3868C42.9857 25.9293 40.2438 25.6447 37.5366 25.1649C34.7314 24.6667 32.1427 23.5566 29.744 22.0236C29.5295 21.8873 29.3558 21.6901 28.8818 21.2774C29.8401 21.3831 30.4571 21.4095 31.0557 21.5254C35.8612 22.4566 40.5012 21.5559 45.1678 20.4722C47.9914 19.8176 50.9213 19.169 53.7857 19.2442C57.5349 19.3418 59.2144 21.8284 58.9243 25.5878C58.5115 30.9391 56.5726 35.8147 54.4212 40.6537C51.6895 46.7981 48.919 52.9322 46.4468 59.1802C45.2495 62.2077 44.6958 65.4852 43.852 68.6509C43.7723 68.9538 43.6906 69.2547 43.6109 69.5577C43.4965 69.5475 43.3841 69.5394 43.2697 69.5292H43.2676Z" fill="#E02E31"/>
<path d="M1.13974 6.27848C1.12339 2.79765 3.88368 0.0182671 7.37542 -3.17109e-05C10.955 -0.0183305 13.7541 2.74478 13.7991 6.34151C13.842 9.77151 10.9591 12.616 7.41628 12.6343C3.90003 12.6546 1.152 9.87114 1.1377 6.27848H1.13974Z" fill="#E02E31"/>
<path d="M21.222 63.1511C21.222 62.226 21.1566 61.2948 21.2343 60.3758C21.5346 56.7649 21.9596 53.1763 23.6452 49.8784C25.4432 46.359 28.5079 45.7165 31.6012 48.1929C34.1613 50.2424 35.9654 52.9038 37.0973 55.8784C38.4131 59.3348 39.2977 62.9539 40.3581 66.5059C40.4113 66.6848 40.3643 66.8963 40.3643 67.4961C39.9802 66.9126 39.7575 66.636 39.6022 66.327C37.6939 62.5412 35.6609 58.8347 32.6391 55.7808C32.0017 55.1363 31.2764 54.5467 30.5081 54.0668C28.1892 52.6192 25.8804 52.9567 24.5442 55.3233C23.3326 57.4724 22.6318 59.9062 21.7185 62.2199C21.598 62.5229 21.5489 62.8543 21.4672 63.1715C21.3855 63.1633 21.3038 63.1572 21.222 63.1491V63.1511Z" fill="#E02E31"/>
<path d="M59.2495 11.3878C59.2597 14.4559 56.8815 16.8592 53.8086 16.8856C50.7276 16.912 48.1961 14.458 48.1798 11.4265C48.1634 8.38481 50.6458 5.92057 53.7535 5.89617C56.7385 5.87177 59.2373 8.37057 59.2475 11.3878H59.2495Z" fill="#E02E31"/>
<path d="M28.9959 44.6897C26.6586 44.651 24.8524 42.7846 24.8892 40.4443C24.926 38.1143 26.775 36.4166 29.233 36.4593C31.5233 36.4999 33.2968 38.3725 33.2375 40.6883C33.1783 42.9879 31.3333 44.7283 28.9959 44.6897Z" fill="#E02E31"/>
</g>
<defs>
<clipPath id="clip0_88_953">
<rect width="59.2492" height="70.9321" fill="white"/>
</clipPath>
</defs>
</svg>
