<svg width="243" height="71" viewBox="0 0 243 71" fill="none" xmlns="http://www.w3.org/2000/svg">
<path d="M242.999 37.274H239.229V18.042H242.999V37.274Z" fill="white"/>
<path d="M229.588 23.1714C231.442 23.1714 232.864 23.5751 233.852 24.3827C234.841 25.1902 235.335 26.4179 235.335 28.0659V37.274H232.703L231.974 35.3953H231.875C231.479 35.8897 231.075 36.2935 230.663 36.6066C230.251 36.9197 229.778 37.1504 229.242 37.2987C228.706 37.4471 228.056 37.5212 227.289 37.5212C226.473 37.5212 225.74 37.3647 225.089 37.0515C224.446 36.7384 223.94 36.2605 223.569 35.6178C223.198 34.9668 223.013 34.1428 223.013 33.1458C223.013 31.6791 223.528 30.5997 224.558 29.9075C225.588 29.2071 227.133 28.8199 229.193 28.7457L231.59 28.6715V28.0659C231.59 27.3408 231.401 26.8093 231.022 26.4715C230.643 26.1336 230.116 25.9647 229.44 25.9647C228.772 25.9647 228.117 26.0595 227.475 26.249C226.832 26.4385 226.189 26.6775 225.546 26.9659L224.298 24.4197C225.031 24.0325 225.851 23.7276 226.758 23.5051C227.672 23.2826 228.616 23.1714 229.588 23.1714ZM231.59 30.8716L230.132 30.921C228.912 30.954 228.064 31.1723 227.586 31.5761C227.116 31.9799 226.881 32.5113 226.881 33.1705C226.881 33.7473 227.05 34.1593 227.388 34.4065C227.726 34.6455 228.167 34.765 228.711 34.765C229.518 34.765 230.198 34.526 230.75 34.0481C231.31 33.5702 231.59 32.8904 231.59 32.0087V30.8716Z" fill="white"/>
<path d="M218.749 34.5179C219.161 34.5179 219.561 34.4767 219.948 34.3943C220.344 34.3119 220.735 34.2089 221.123 34.0853V36.891C220.719 37.0723 220.216 37.2206 219.615 37.336C219.021 37.4596 218.37 37.5214 217.662 37.5214C216.838 37.5214 216.096 37.3895 215.437 37.1258C214.786 36.8539 214.271 36.3884 213.892 35.7292C213.521 35.0617 213.336 34.1347 213.336 32.9482V26.2862H211.531V24.6918L213.608 23.4311L214.695 20.5142H217.106V23.4558H220.974V26.2862H217.106V32.9482C217.106 33.4756 217.254 33.8711 217.551 34.1347C217.855 34.3902 218.255 34.5179 218.749 34.5179Z" fill="white"/>
<path d="M204.14 23.1963C205.614 23.1963 206.801 23.6 207.699 24.4076C208.597 25.2068 209.046 26.4923 209.046 28.2638V37.2742H205.277V29.2032C205.277 28.2144 205.095 27.4687 204.733 26.9661C204.378 26.4634 203.818 26.2121 203.052 26.2121C201.898 26.2121 201.111 26.6035 200.691 27.3863C200.271 28.1691 200.061 29.298 200.061 30.7729V37.2742H196.291V23.4558H199.171L199.678 25.2233H199.888C200.184 24.7454 200.551 24.3581 200.988 24.0615C201.433 23.7648 201.923 23.5465 202.459 23.4064C203.002 23.2663 203.563 23.1963 204.14 23.1963Z" fill="white"/>
<path d="M187.033 23.1963C188.311 23.1963 189.411 23.4435 190.334 23.9379C191.256 24.424 191.969 25.1327 192.472 26.0638C192.974 26.9949 193.226 28.132 193.226 29.4751V31.3044H184.314C184.356 32.3673 184.673 33.2037 185.266 33.8134C185.868 34.4149 186.7 34.7157 187.763 34.7157C188.644 34.7157 189.452 34.6251 190.185 34.4438C190.919 34.2625 191.673 33.9906 192.447 33.628V36.545C191.763 36.8828 191.046 37.13 190.297 37.2866C189.555 37.4431 188.653 37.5214 187.59 37.5214C186.205 37.5214 184.978 37.266 183.906 36.7551C182.843 36.2442 182.007 35.4655 181.397 34.4191C180.796 33.3726 180.495 32.0542 180.495 30.4639C180.495 28.8489 180.767 27.5058 181.311 26.4346C181.863 25.3551 182.629 24.5476 183.61 24.012C184.59 23.4682 185.732 23.1963 187.033 23.1963ZM187.058 25.8784C186.325 25.8784 185.715 26.1132 185.229 26.5829C184.751 27.0526 184.475 27.79 184.401 28.7953H189.691C189.683 28.235 189.58 27.7365 189.382 27.2998C189.192 26.8631 188.904 26.517 188.517 26.2615C188.138 26.0061 187.651 25.8784 187.058 25.8784Z" fill="white"/>
<path d="M177.887 28.0661C177.887 30.1014 177.496 31.8029 176.713 33.1708C175.938 34.5304 174.814 35.5562 173.339 36.2484C171.864 36.9323 170.088 37.2742 168.012 37.2742H162.895V19.2041H168.568C170.463 19.2041 172.107 19.5419 173.499 20.2176C174.892 20.885 175.971 21.878 176.738 23.1963C177.504 24.5065 177.887 26.1298 177.887 28.0661ZM173.907 28.165C173.907 26.8301 173.709 25.7342 173.314 24.8773C172.927 24.0121 172.35 23.3735 171.584 22.9615C170.825 22.5495 169.886 22.3435 168.765 22.3435H166.726V34.1101H168.37C170.24 34.1101 171.629 33.6116 172.535 32.6146C173.45 31.6175 173.907 30.1344 173.907 28.165Z" fill="white"/>
<path d="M139.634 23.4556H143.762L146.37 31.2299C146.452 31.4771 146.522 31.7284 146.58 31.9839C146.638 32.2393 146.687 32.503 146.728 32.7749C146.77 33.0468 146.803 33.3311 146.827 33.6277H146.901C146.951 33.1828 147.017 32.7667 147.099 32.3794C147.19 31.9921 147.301 31.609 147.433 31.2299L149.991 23.4556H154.033L148.187 39.0414C147.833 39.9972 147.371 40.7924 146.803 41.4268C146.234 42.0695 145.579 42.5516 144.837 42.8729C144.104 43.1943 143.296 43.355 142.415 43.355C141.986 43.355 141.615 43.3303 141.302 43.2808C140.989 43.2396 140.721 43.1943 140.499 43.1449V40.1538C140.672 40.195 140.89 40.232 141.154 40.265C141.418 40.298 141.694 40.3144 141.982 40.3144C142.51 40.3144 142.963 40.2032 143.342 39.9807C143.721 39.7582 144.038 39.4575 144.293 39.0785C144.549 38.7077 144.751 38.2998 144.899 37.8548L145.122 37.175L139.634 23.4556Z" fill="white"/>
<path d="M137.644 37.274H133.874V18.042H137.644V37.274Z" fill="white"/>
<path d="M129.907 23.4556V37.274H126.137V23.4556H129.907ZM128.028 18.042C128.589 18.042 129.071 18.1738 129.474 18.4375C129.878 18.6929 130.08 19.175 130.08 19.8836C130.08 20.584 129.878 21.0702 129.474 21.3421C129.071 21.6058 128.589 21.7376 128.028 21.7376C127.46 21.7376 126.974 21.6058 126.57 21.3421C126.174 21.0702 125.977 20.584 125.977 19.8836C125.977 19.175 126.174 18.6929 126.57 18.4375C126.974 18.1738 127.46 18.042 128.028 18.042Z" fill="white"/>
<path d="M117.497 23.1963C119.063 23.1963 120.245 23.6 121.044 24.4076C121.852 25.2068 122.256 26.4923 122.256 28.2638V37.2742H118.474V29.2032C118.474 28.2144 118.305 27.4687 117.967 26.9661C117.629 26.4634 117.106 26.2121 116.397 26.2121C115.4 26.2121 114.691 26.5705 114.271 27.2874C113.851 27.996 113.641 29.0137 113.641 30.3403V37.2742H109.871V29.2032C109.871 28.544 109.797 27.9919 109.649 27.547C109.5 27.102 109.274 26.7683 108.969 26.5458C108.664 26.3233 108.272 26.2121 107.795 26.2121C107.094 26.2121 106.542 26.3893 106.138 26.7436C105.743 27.0897 105.459 27.6046 105.286 28.2886C105.121 28.9642 105.038 29.7923 105.038 30.7729V37.2742H101.269V23.4558H104.148L104.655 25.2233H104.865C105.145 24.7454 105.496 24.3581 105.916 24.0615C106.344 23.7648 106.814 23.5465 107.325 23.4064C107.836 23.2663 108.355 23.1963 108.882 23.1963C109.896 23.1963 110.753 23.3611 111.453 23.6907C112.162 24.0203 112.706 24.5312 113.085 25.2233H113.418C113.83 24.5147 114.411 23.9997 115.161 23.6783C115.919 23.357 116.698 23.1963 117.497 23.1963Z" fill="white"/>
<path d="M91.6282 23.1714C93.4822 23.1714 94.9036 23.5751 95.8923 24.3827C96.8811 25.1902 97.3755 26.4179 97.3755 28.0659V37.274H94.7429L94.0136 35.3953H93.9148C93.5193 35.8897 93.1155 36.2935 92.7035 36.6066C92.2915 36.9197 91.8177 37.1504 91.2821 37.2987C90.7465 37.4471 90.0956 37.5212 89.3293 37.5212C88.5135 37.5212 87.7801 37.3647 87.1292 37.0515C86.4865 36.7384 85.9797 36.2605 85.6089 35.6178C85.2381 34.9668 85.0527 34.1428 85.0527 33.1458C85.0527 31.6791 85.5677 30.5997 86.5977 29.9075C87.6277 29.2071 89.1727 28.8199 91.2327 28.7457L93.6305 28.6715V28.0659C93.6305 27.3408 93.441 26.8093 93.0619 26.4715C92.6829 26.1336 92.1555 25.9647 91.4799 25.9647C90.8124 25.9647 90.1574 26.0595 89.5147 26.249C88.8719 26.4385 88.2292 26.6775 87.5865 26.9659L86.3382 24.4197C87.0715 24.0325 87.8914 23.7276 88.7978 23.5051C89.7124 23.2826 90.6559 23.1714 91.6282 23.1714ZM93.6305 30.8716L92.172 30.921C90.9525 30.954 90.1038 31.1723 89.6259 31.5761C89.1562 31.9799 88.9214 32.5113 88.9214 33.1705C88.9214 33.7473 89.0903 34.1593 89.4281 34.4065C89.766 34.6455 90.2068 34.765 90.7506 34.765C91.5582 34.765 92.2379 34.526 92.79 34.0481C93.3503 33.5702 93.6305 32.8904 93.6305 32.0087V30.8716Z" fill="white"/>
<path d="M76.1409 37.2742H72.3711V19.2041H82.7287V22.3435H76.1409V27.0032H82.2714V30.1302H76.1409V37.2742Z" fill="white"/>
<path d="M225.196 51.7013L223.477 54.5205H221.748L223.839 51.2892C223.641 51.2054 223.442 51.0831 223.241 50.9223C223.043 50.7615 222.879 50.5471 222.748 50.2791C222.617 50.0077 222.552 49.6727 222.552 49.274C222.552 48.5939 222.795 48.0746 223.281 47.7161C223.767 47.3543 224.448 47.1733 225.326 47.1733H227.718V54.5205H226.16V51.7013H225.196ZM226.16 48.4498H225.391C225.123 48.4498 224.894 48.4816 224.703 48.5453C224.515 48.6089 224.371 48.7095 224.271 48.8468C224.174 48.9808 224.125 49.1601 224.125 49.3845C224.125 49.7095 224.232 49.9658 224.447 50.1534C224.661 50.341 224.989 50.4349 225.432 50.4349H226.16V48.4498Z" fill="white"/>
<path d="M219.109 54.5205V47.1733H220.667V54.5205H219.109Z" fill="white"/>
<path d="M217.769 47.1733V48.4599H214.683V54.5205H213.125V47.1733H217.769Z" fill="white"/>
<path d="M211.397 50.8368C211.397 51.403 211.326 51.9189 211.186 52.3846C211.045 52.8469 210.831 53.2456 210.542 53.5806C210.258 53.9157 209.896 54.1736 209.457 54.3546C209.018 54.5321 208.499 54.6209 207.899 54.6209C207.299 54.6209 206.78 54.5321 206.341 54.3546C205.902 54.1736 205.539 53.9157 205.251 53.5806C204.966 53.2456 204.753 52.8453 204.612 52.3796C204.472 51.9139 204.401 51.3963 204.401 50.8267C204.401 50.0662 204.525 49.4045 204.773 48.8417C205.025 48.2755 205.41 47.8366 205.929 47.525C206.448 47.2134 207.108 47.0576 207.909 47.0576C208.706 47.0576 209.361 47.2134 209.874 47.525C210.39 47.8366 210.772 48.2755 211.02 48.8417C211.271 49.4079 211.397 50.0729 211.397 50.8368ZM206.035 50.8368C206.035 51.3493 206.098 51.7916 206.226 52.1635C206.356 52.532 206.559 52.8168 206.834 53.0178C207.108 53.2155 207.464 53.3143 207.899 53.3143C208.341 53.3143 208.7 53.2155 208.975 53.0178C209.249 52.8168 209.449 52.532 209.573 52.1635C209.7 51.7916 209.764 51.3493 209.764 50.8368C209.764 50.0662 209.619 49.4598 209.331 49.0175C209.043 48.5753 208.569 48.3542 207.909 48.3542C207.47 48.3542 207.112 48.4547 206.834 48.6557C206.559 48.8534 206.356 49.1382 206.226 49.51C206.098 49.8786 206.035 50.3208 206.035 50.8368Z" fill="white"/>
<path d="M202.668 54.5205H201.115V48.4699H199.316C199.275 48.7848 199.232 49.1282 199.185 49.5001C199.138 49.872 199.089 50.2472 199.039 50.6258C198.989 51.0044 198.935 51.3646 198.878 51.7063C198.825 52.048 198.771 52.3479 198.718 52.6058C198.63 53.0347 198.511 53.3999 198.361 53.7014C198.213 53.9996 198.011 54.2274 197.753 54.3849C197.498 54.5423 197.165 54.6211 196.753 54.6211C196.615 54.6211 196.483 54.611 196.356 54.5909C196.232 54.5708 196.116 54.544 196.009 54.5105V53.234C196.096 53.2642 196.183 53.2893 196.27 53.3094C196.357 53.3262 196.453 53.3345 196.557 53.3345C196.691 53.3345 196.801 53.291 196.888 53.2039C196.979 53.1134 197.059 52.961 197.129 52.7466C197.2 52.5288 197.27 52.2289 197.341 51.847C197.371 51.6795 197.411 51.4433 197.461 51.1384C197.511 50.8302 197.568 50.47 197.632 50.0579C197.696 49.6425 197.761 49.1902 197.828 48.7011C197.898 48.2119 197.965 47.7027 198.029 47.1733H202.668V54.5205Z" fill="white"/>
<path d="M195.124 50.8368C195.124 51.403 195.054 51.9189 194.913 52.3846C194.773 52.8469 194.558 53.2456 194.27 53.5806C193.985 53.9157 193.623 54.1736 193.185 54.3546C192.746 54.5321 192.226 54.6209 191.627 54.6209C191.027 54.6209 190.508 54.5321 190.069 54.3546C189.63 54.1736 189.266 53.9157 188.978 53.5806C188.693 53.2456 188.481 52.8453 188.34 52.3796C188.199 51.9139 188.129 51.3963 188.129 50.8267C188.129 50.0662 188.253 49.4045 188.501 48.8417C188.752 48.2755 189.137 47.8366 189.657 47.525C190.176 47.2134 190.836 47.0576 191.637 47.0576C192.434 47.0576 193.089 47.2134 193.602 47.525C194.118 47.8366 194.499 48.2755 194.747 48.8417C194.999 49.4079 195.124 50.0729 195.124 50.8368ZM189.762 50.8368C189.762 51.3493 189.826 51.7916 189.953 52.1635C190.084 52.532 190.286 52.8168 190.561 53.0178C190.836 53.2155 191.191 53.3143 191.627 53.3143C192.069 53.3143 192.427 53.2155 192.702 53.0178C192.977 52.8168 193.176 52.532 193.3 52.1635C193.427 51.7916 193.491 51.3493 193.491 50.8368C193.491 50.0662 193.347 49.4598 193.059 49.0175C192.771 48.5753 192.297 48.3542 191.637 48.3542C191.198 48.3542 190.839 48.4547 190.561 48.6557C190.286 48.8534 190.084 49.1382 189.953 49.51C189.826 49.8786 189.762 50.3208 189.762 50.8368Z" fill="white"/>
<path d="M185.124 54.5205H183.566V48.4699H181.571V47.1733H187.119V48.4699H185.124V54.5205Z" fill="white"/>
<path d="M179.476 54.5204L178.943 52.7716H176.265L175.732 54.5204H174.054L176.647 47.1431H178.551L181.155 54.5204H179.476ZM178.572 51.465L178.039 49.7563C178.005 49.6424 177.96 49.4967 177.903 49.3191C177.85 49.1382 177.794 48.9556 177.737 48.7713C177.684 48.5837 177.64 48.4212 177.607 48.2838C177.573 48.4212 177.526 48.5921 177.466 48.7964C177.409 48.9975 177.354 49.1884 177.3 49.3693C177.247 49.5503 177.208 49.6792 177.185 49.7563L176.657 51.465H178.572Z" fill="white"/>
<path d="M168.174 54.5205L166.405 48.7564H166.36C166.367 48.8937 166.377 49.1014 166.39 49.3795C166.407 49.6542 166.422 49.9474 166.435 50.259C166.449 50.5705 166.456 50.852 166.456 51.1032V54.5205H165.063V47.1733H167.184L168.923 52.7918H168.953L170.798 47.1733H172.918V54.5205H171.466V51.0429C171.466 50.8118 171.469 50.5454 171.476 50.2439C171.486 49.9424 171.498 49.6559 171.511 49.3845C171.525 49.1098 171.535 48.9038 171.541 48.7664H171.496L169.601 54.5205H168.174Z" fill="white"/>
<path d="M163.334 50.8368C163.334 51.403 163.264 51.9189 163.123 52.3846C162.983 52.8469 162.768 53.2456 162.48 53.5806C162.195 53.9157 161.833 54.1736 161.394 54.3546C160.956 54.5321 160.436 54.6209 159.837 54.6209C159.237 54.6209 158.718 54.5321 158.279 54.3546C157.84 54.1736 157.476 53.9157 157.188 53.5806C156.903 53.2456 156.691 52.8453 156.55 52.3796C156.409 51.9139 156.339 51.3963 156.339 50.8267C156.339 50.0662 156.463 49.4045 156.711 48.8417C156.962 48.2755 157.347 47.8366 157.867 47.525C158.386 47.2134 159.046 47.0576 159.847 47.0576C160.644 47.0576 161.299 47.2134 161.812 47.525C162.328 47.8366 162.709 48.2755 162.957 48.8417C163.209 49.4079 163.334 50.0729 163.334 50.8368ZM157.972 50.8368C157.972 51.3493 158.036 51.7916 158.163 52.1635C158.294 52.532 158.496 52.8168 158.771 53.0178C159.046 53.2155 159.401 53.3143 159.837 53.3143C160.279 53.3143 160.637 53.2155 160.912 53.0178C161.187 52.8168 161.386 52.532 161.51 52.1635C161.637 51.7916 161.701 51.3493 161.701 50.8368C161.701 50.0662 161.557 49.4598 161.269 49.0175C160.981 48.5753 160.507 48.3542 159.847 48.3542C159.408 48.3542 159.049 48.4547 158.771 48.6557C158.496 48.8534 158.294 49.1382 158.163 49.51C158.036 49.8786 157.972 50.3208 157.972 50.8368Z" fill="white"/>
<path d="M153.334 54.5205H151.776V48.4699H149.781V47.1733H155.329V48.4699H153.334V54.5205Z" fill="white"/>
<path d="M146.851 48.3644C146.553 48.3644 146.288 48.4231 146.057 48.5403C145.829 48.6542 145.636 48.8201 145.479 49.0378C145.325 49.2556 145.207 49.5186 145.127 49.8268C145.047 50.1351 145.006 50.4818 145.006 50.8671C145.006 51.3864 145.07 51.8303 145.197 52.1989C145.328 52.564 145.529 52.8438 145.8 53.0381C146.072 53.2291 146.422 53.3246 146.851 53.3246C147.149 53.3246 147.447 53.291 147.745 53.224C148.047 53.157 148.373 53.0616 148.725 52.9376V54.2442C148.4 54.3782 148.08 54.4737 147.765 54.5307C147.45 54.591 147.097 54.6211 146.705 54.6211C145.948 54.6211 145.325 54.4653 144.836 54.1537C144.35 53.8388 143.99 53.3999 143.755 52.8371C143.521 52.2709 143.403 51.6109 143.403 50.8571C143.403 50.3009 143.479 49.7917 143.629 49.3293C143.78 48.867 144.001 48.4666 144.293 48.1282C144.584 47.7899 144.944 47.5285 145.373 47.3443C145.802 47.16 146.295 47.0679 146.851 47.0679C147.216 47.0679 147.581 47.1148 147.946 47.2086C148.315 47.299 148.667 47.4247 149.002 47.5855L148.499 48.8519C148.224 48.7212 147.948 48.6073 147.67 48.5102C147.392 48.413 147.119 48.3644 146.851 48.3644Z" fill="white"/>
<path d="M138.037 54.5204L137.504 52.7716H134.825L134.293 54.5204H132.614L135.207 47.1431H137.112L139.715 54.5204H138.037ZM137.132 51.465L136.599 49.7563C136.566 49.6424 136.521 49.4967 136.464 49.3191C136.41 49.1382 136.355 48.9556 136.298 48.7713C136.244 48.5837 136.201 48.4212 136.167 48.2838C136.134 48.4212 136.087 48.5921 136.027 48.7964C135.97 48.9975 135.914 49.1884 135.861 49.3693C135.807 49.5503 135.769 49.6792 135.745 49.7563L135.217 51.465H137.132Z" fill="white"/>
<path d="M131.474 54.5205H129.921V51.3495H127.011V54.5205H125.453V47.1733H127.011V50.0529H129.921V47.1733H131.474V54.5205Z" fill="white"/>
<path d="M116.775 47.1731H118.177V50.7211C118.177 50.8953 118.174 51.0879 118.167 51.299C118.164 51.5101 118.157 51.7178 118.147 51.9221C118.141 52.1232 118.134 52.2991 118.127 52.4498C118.121 52.6006 118.114 52.7011 118.107 52.7513H118.137L121.529 47.1731H123.394V54.5203H122.007V50.9924C122.007 50.8048 122.01 50.6005 122.017 50.3793C122.024 50.1582 122.032 49.9438 122.042 49.7361C122.055 49.5284 122.067 49.3491 122.077 49.1984C122.087 49.0442 122.094 48.9421 122.097 48.8918H122.057L118.65 54.5203H116.775V47.1731ZM122.695 44.7559C122.659 45.111 122.558 45.4242 122.394 45.6956C122.23 45.967 121.973 46.1781 121.625 46.3288C121.277 46.4796 120.807 46.555 120.218 46.555C119.611 46.555 119.139 46.4829 118.801 46.3389C118.462 46.1915 118.221 45.9837 118.077 45.7157C117.933 45.4443 117.846 45.1244 117.816 44.7559H119.188C119.218 45.1344 119.313 45.3857 119.474 45.5097C119.635 45.6303 119.893 45.6906 120.248 45.6906C120.543 45.6906 120.784 45.6236 120.972 45.4896C121.159 45.3556 121.271 45.111 121.308 44.7559H122.695Z" fill="white"/>
<path d="M115.031 54.5205H110.8V47.1733H115.031V48.4498H112.358V50.063H114.845V51.3394H112.358V53.234H115.031V54.5205Z" fill="white"/>
<path d="M103.996 54.5205L102.227 48.7564H102.181C102.188 48.8937 102.198 49.1014 102.211 49.3795C102.228 49.6542 102.243 49.9474 102.257 50.259C102.27 50.5705 102.277 50.852 102.277 51.1032V54.5205H100.885V47.1733H103.006L104.744 52.7918H104.774L106.619 47.1733H108.74V54.5205H107.287V51.0429C107.287 50.8118 107.291 50.5454 107.297 50.2439C107.307 49.9424 107.319 49.6559 107.332 49.3845C107.346 49.1098 107.356 48.9038 107.363 48.7664H107.317L105.423 54.5205H103.996Z" fill="white"/>
<path d="M97.2715 54.5205V47.1733H98.8294V54.5205H97.2715Z" fill="white"/>
<path d="M93.6232 48.3644C93.3251 48.3644 93.0604 48.4231 92.8292 48.5403C92.6014 48.6542 92.4088 48.8201 92.2513 49.0378C92.0972 49.2556 91.9799 49.5186 91.8995 49.8268C91.8191 50.1351 91.7789 50.4818 91.7789 50.8671C91.7789 51.3864 91.8426 51.8303 91.9699 52.1989C92.1005 52.564 92.3015 52.8438 92.5729 53.0381C92.8443 53.2291 93.1944 53.3246 93.6232 53.3246C93.9214 53.3246 94.2196 53.291 94.5178 53.224C94.8193 53.157 95.1459 53.0616 95.4977 52.9376V54.2442C95.1727 54.3782 94.8528 54.4737 94.5379 54.5307C94.2229 54.591 93.8695 54.6211 93.4775 54.6211C92.7203 54.6211 92.0972 54.4653 91.608 54.1537C91.1222 53.8388 90.7621 53.3999 90.5276 52.8371C90.293 52.2709 90.1758 51.6109 90.1758 50.8571C90.1758 50.3009 90.2512 49.7917 90.4019 49.3293C90.5527 48.867 90.7738 48.4666 91.0653 48.1282C91.3568 47.7899 91.7169 47.5285 92.1458 47.3443C92.5746 47.16 93.0671 47.0679 93.6232 47.0679C93.9884 47.0679 94.3536 47.1148 94.7188 47.2086C95.0873 47.299 95.4391 47.4247 95.7741 47.5855L95.2716 48.8519C94.9969 48.7212 94.7205 48.6073 94.4424 48.5102C94.1643 48.413 93.8913 48.3644 93.6232 48.3644Z" fill="white"/>
<g clip-path="url(#clip0_63_462)">
<path d="M35.7715 28.5053C35.3547 28.546 34.9358 28.6151 34.519 28.6212C29.4459 28.6741 24.6404 27.3647 19.8717 25.8194C15.3053 24.3413 12.0893 25.3884 9.99512 28.9892C8.86935 30.9228 8.32179 33.0353 8.20737 35.2636C7.90294 41.1802 9.19625 46.8569 11.3068 52.2937C13.6135 58.2388 16.3452 64.0191 18.891 69.8727C19.0197 70.1696 19.1586 70.4623 19.0912 70.934C18.8358 70.7145 18.56 70.5152 18.3271 70.2733C10.7 62.3438 5.26728 53.1334 2.03503 42.6462C0.631386 38.0918 -0.145009 33.4358 0.0225286 28.668C0.132858 25.5307 0.792795 22.5053 2.57442 19.8256C4.82188 16.4464 8.15425 15.3688 12.0158 15.5457C16.4086 15.747 19.8942 18.0201 23.3246 20.4742C26.4629 22.7188 29.6808 24.8577 32.9151 26.9662C33.7712 27.5253 34.8153 27.8018 35.7735 28.2084C35.7735 28.3081 35.7735 28.4057 35.7715 28.5053Z" fill="white"/>
<path d="M43.2676 69.5293C43.1512 68.1426 42.9632 66.756 42.9326 65.3673C42.7732 58.2633 44.0869 51.3932 46.2894 44.6572C47.454 41.095 48.5532 37.5105 49.5544 33.9016C49.8445 32.8585 49.8241 31.6793 49.7076 30.5875C49.4481 28.1781 48.116 26.7955 45.6969 26.3869C42.9857 25.9294 40.2438 25.6448 37.5366 25.1649C34.7314 24.6668 32.1427 23.5567 29.744 22.0236C29.5295 21.8874 29.3558 21.6902 28.8818 21.2774C29.8401 21.3832 30.4571 21.4096 31.0557 21.5255C35.8612 22.4567 40.5012 21.556 45.1678 20.4723C47.9914 19.8176 50.9213 19.169 53.7857 19.2443C57.5349 19.3418 59.2144 21.8284 58.9243 25.5878C58.5115 30.9392 56.5726 35.8148 54.4212 40.6538C51.6895 46.7981 48.919 52.9323 46.4468 59.1803C45.2495 62.2077 44.6958 65.4852 43.852 68.6509C43.7723 68.9539 43.6906 69.2548 43.6109 69.5577C43.4965 69.5476 43.3841 69.5394 43.2697 69.5293H43.2676Z" fill="white"/>
<path d="M1.13974 6.2786C1.12339 2.79777 3.88368 0.0183891 7.37542 9.03594e-05C10.955 -0.0182084 13.7541 2.74491 13.7991 6.34163C13.842 9.77163 10.9591 12.6161 7.41628 12.6344C3.90003 12.6547 1.152 9.87126 1.1377 6.2786H1.13974Z" fill="white"/>
<path d="M21.222 63.1511C21.222 62.226 21.1566 61.2948 21.2343 60.3758C21.5346 56.7648 21.9596 53.1762 23.6452 49.8784C25.4432 46.3589 28.5079 45.7164 31.6012 48.1929C34.1613 50.2423 35.9654 52.9038 37.0973 55.8783C38.4131 59.3348 39.2977 62.9539 40.3581 66.5059C40.4113 66.6848 40.3643 66.8962 40.3643 67.496C39.9802 66.9125 39.7575 66.636 39.6022 66.3269C37.6939 62.5411 35.6609 58.8346 32.6391 55.7807C32.0017 55.1362 31.2764 54.5466 30.5081 54.0668C28.1892 52.6191 25.8804 52.9566 24.5442 55.3233C23.3326 57.4724 22.6318 59.9061 21.7185 62.2199C21.598 62.5228 21.5489 62.8542 21.4672 63.1714C21.3855 63.1633 21.3038 63.1572 21.222 63.1491V63.1511Z" fill="white"/>
<path d="M59.2495 11.3878C59.2597 14.4559 56.8815 16.8592 53.8086 16.8856C50.7276 16.912 48.1961 14.458 48.1798 11.4265C48.1634 8.38481 50.6458 5.92057 53.7535 5.89617C56.7385 5.87177 59.2373 8.37057 59.2475 11.3878H59.2495Z" fill="white"/>
<path d="M28.9959 44.6897C26.6586 44.651 24.8524 42.7846 24.8892 40.4443C24.926 38.1143 26.775 36.4166 29.233 36.4593C31.5233 36.4999 33.2968 38.3725 33.2375 40.6883C33.1783 42.9879 31.3333 44.7283 28.9959 44.6897Z" fill="white"/>
</g>
<defs>
<clipPath id="clip0_63_462">
<rect width="59.2492" height="70.9321" fill="white"/>
</clipPath>
</defs>
</svg>
