<svg width="247" height="71" viewBox="0 0 247 71" fill="none" xmlns="http://www.w3.org/2000/svg">
<path d="M73.4311 39V20.0909H86.3388V23.8026H78.0014V27.6804H85.517V31.4013H78.0014V39H73.4311ZM92.4094 39.2401C91.5046 39.2401 90.7013 39.0893 89.9996 38.7876C89.3041 38.4799 88.7532 38.0182 88.3469 37.4027C87.9469 36.781 87.7468 36.0024 87.7468 35.0668C87.7468 34.2789 87.8853 33.6141 88.1623 33.0724C88.4393 32.5308 88.8209 32.0907 89.3072 31.7521C89.7934 31.4136 90.3536 31.1581 90.9876 30.9858C91.6216 30.8073 92.2987 30.6873 93.0188 30.6257C93.8252 30.5518 94.4746 30.4749 94.967 30.3949C95.4594 30.3087 95.8164 30.1887 96.038 30.0348C96.2657 29.8748 96.3796 29.6501 96.3796 29.3608V29.3146C96.3796 28.8407 96.2165 28.4744 95.8903 28.2159C95.564 27.9574 95.1239 27.8281 94.57 27.8281C93.9729 27.8281 93.4928 27.9574 93.1296 28.2159C92.7665 28.4744 92.5356 28.8314 92.4371 29.2869L88.2731 29.1392C88.3962 28.2775 88.7132 27.508 89.2241 26.831C89.7411 26.1477 90.449 25.6122 91.3477 25.2244C92.2525 24.8305 93.3389 24.6335 94.6069 24.6335C95.5117 24.6335 96.3458 24.7412 97.109 24.9567C97.8723 25.166 98.5371 25.4737 99.1033 25.88C99.6696 26.2801 100.107 26.7725 100.414 27.3572C100.728 27.942 100.885 28.6098 100.885 29.3608V39H96.6381V37.0241H96.5273C96.275 37.5043 95.9518 37.9105 95.5579 38.2429C95.1701 38.5753 94.7115 38.8246 94.1822 38.9908C93.659 39.157 93.0681 39.2401 92.4094 39.2401ZM93.8036 36.2855C94.2899 36.2855 94.7269 36.187 95.1147 35.9901C95.5086 35.7931 95.8226 35.5223 96.0565 35.1776C96.2904 34.8267 96.4073 34.4205 96.4073 33.9588V32.6108C96.2781 32.6785 96.1211 32.7401 95.9364 32.7955C95.7579 32.8509 95.561 32.9032 95.3455 32.9524C95.1301 33.0017 94.9085 33.0447 94.6808 33.0817C94.453 33.1186 94.2345 33.1525 94.0252 33.1832C93.6005 33.2509 93.2373 33.3556 92.9357 33.4972C92.6403 33.6387 92.4125 33.8234 92.2525 34.0511C92.0986 34.2727 92.0217 34.5374 92.0217 34.8452C92.0217 35.313 92.1879 35.67 92.5202 35.9162C92.8588 36.1624 93.2866 36.2855 93.8036 36.2855ZM103.646 39V24.8182H107.939V27.4219H108.096C108.392 26.5601 108.89 25.88 109.592 25.3814C110.294 24.8828 111.131 24.6335 112.103 24.6335C113.088 24.6335 113.931 24.8859 114.633 25.3906C115.335 25.8954 115.781 26.5724 115.972 27.4219H116.12C116.384 26.5786 116.901 25.9046 117.671 25.3999C118.44 24.889 119.348 24.6335 120.395 24.6335C121.736 24.6335 122.826 25.0644 123.663 25.9261C124.5 26.7817 124.919 27.9574 124.919 29.4531V39H120.404V30.4872C120.404 29.7794 120.222 29.2408 119.859 28.8714C119.496 28.496 119.025 28.3082 118.446 28.3082C117.825 28.3082 117.335 28.5114 116.978 28.9176C116.627 29.3177 116.452 29.8563 116.452 30.5334V39H112.113V30.4411C112.113 29.7824 111.934 29.2623 111.577 28.8807C111.22 28.4991 110.749 28.3082 110.164 28.3082C109.77 28.3082 109.423 28.4036 109.121 28.5945C108.819 28.7791 108.583 29.0438 108.41 29.3885C108.244 29.7332 108.161 30.1394 108.161 30.6072V39H103.646ZM127.716 39V24.8182H132.231V39H127.716ZM129.978 23.1655C129.344 23.1655 128.8 22.9562 128.344 22.5376C127.889 22.1129 127.661 21.602 127.661 21.005C127.661 20.4141 127.889 19.9093 128.344 19.4908C128.8 19.0661 129.344 18.8537 129.978 18.8537C130.618 18.8537 131.163 19.0661 131.613 19.4908C132.068 19.9093 132.296 20.4141 132.296 21.005C132.296 21.602 132.068 22.1129 131.613 22.5376C131.163 22.9562 130.618 23.1655 129.978 23.1655ZM139.62 20.0909V39H135.105V20.0909H139.62ZM145.254 44.3182C144.713 44.3182 144.202 44.2751 143.722 44.1889C143.241 44.1089 142.829 44.0012 142.484 43.8658L143.482 40.5881C143.925 40.7358 144.325 40.822 144.682 40.8466C145.045 40.8712 145.356 40.8127 145.614 40.6712C145.879 40.5357 146.082 40.2926 146.224 39.9418L146.399 39.517L141.358 24.8182H146.085L148.698 34.9375H148.846L151.496 24.8182H156.251L150.905 40.3572C150.646 41.1328 150.28 41.8161 149.806 42.407C149.338 43.004 148.732 43.4718 147.987 43.8104C147.249 44.1489 146.338 44.3182 145.254 44.3182ZM170.557 39H163.568V20.0909H170.548C172.475 20.0909 174.133 20.4695 175.525 21.2266C176.922 21.9775 177.999 23.0608 178.756 24.4766C179.513 25.8861 179.892 27.5727 179.892 29.5362C179.892 31.5059 179.513 33.1986 178.756 34.6143C178.005 36.0301 176.931 37.1165 175.534 37.8736C174.136 38.6245 172.478 39 170.557 39ZM168.138 35.1037H170.382C171.44 35.1037 172.336 34.9252 173.069 34.5682C173.807 34.205 174.364 33.6172 174.74 32.8047C175.121 31.986 175.312 30.8965 175.312 29.5362C175.312 28.1759 175.121 27.0926 174.74 26.2862C174.358 25.4737 173.795 24.889 173.05 24.532C172.311 24.1688 171.4 23.9872 170.317 23.9872H168.138V35.1037ZM189.189 39.2678C187.706 39.2678 186.426 38.9754 185.348 38.3906C184.277 37.7997 183.453 36.9595 182.874 35.87C182.301 34.7744 182.015 33.4725 182.015 31.9645C182.015 30.4995 182.305 29.2192 182.883 28.1236C183.462 27.0218 184.277 26.1662 185.33 25.5568C186.382 24.9413 187.623 24.6335 189.051 24.6335C190.06 24.6335 190.984 24.7905 191.821 25.1044C192.658 25.4183 193.381 25.883 193.99 26.4986C194.6 27.1141 195.074 27.8743 195.412 28.7791C195.751 29.6778 195.92 30.7088 195.92 31.8722V32.9986H183.594V30.3764H191.719C191.713 29.8963 191.599 29.4685 191.377 29.093C191.156 28.7176 190.851 28.4252 190.463 28.2159C190.082 28.0005 189.642 27.8928 189.143 27.8928C188.638 27.8928 188.186 28.0066 187.786 28.2344C187.386 28.456 187.069 28.7607 186.835 29.1484C186.601 29.5301 186.478 29.964 186.466 30.4503V33.1186C186.466 33.6972 186.579 34.205 186.807 34.642C187.035 35.0729 187.358 35.4084 187.777 35.6484C188.195 35.8885 188.694 36.0085 189.272 36.0085C189.672 36.0085 190.036 35.9531 190.362 35.8423C190.688 35.7315 190.968 35.5684 191.202 35.353C191.436 35.1375 191.611 34.8729 191.728 34.5589L195.874 34.679C195.702 35.6084 195.323 36.4179 194.738 37.1072C194.16 37.7905 193.4 38.3229 192.458 38.7045C191.516 39.08 190.426 39.2678 189.189 39.2678ZM202.741 30.9119V39H198.226V24.8182H202.519V27.4219H202.676C202.99 26.554 203.526 25.8738 204.283 25.3814C205.04 24.8828 205.942 24.6335 206.988 24.6335C207.985 24.6335 208.85 24.8582 209.583 25.3075C210.321 25.7507 210.894 26.3724 211.3 27.1726C211.712 27.9666 211.915 28.8961 211.909 29.9609V39H207.394V30.8473C207.401 30.0594 207.2 29.4439 206.794 29.0007C206.394 28.5575 205.837 28.3359 205.123 28.3359C204.649 28.3359 204.231 28.4406 203.867 28.6499C203.51 28.853 203.233 29.1454 203.036 29.527C202.846 29.9086 202.747 30.3703 202.741 30.9119ZM222.71 24.8182V28.142H213.763V24.8182H222.71ZM215.637 21.4205H220.152V34.5405C220.152 34.8175 220.195 35.0421 220.281 35.2145C220.374 35.3807 220.506 35.5007 220.678 35.5746C220.851 35.6423 221.057 35.6761 221.297 35.6761C221.469 35.6761 221.651 35.6607 221.842 35.63C222.039 35.593 222.186 35.5623 222.285 35.5376L222.968 38.7969C222.753 38.8584 222.448 38.9354 222.054 39.0277C221.666 39.12 221.201 39.1785 220.66 39.2031C219.601 39.2524 218.693 39.1293 217.936 38.8338C217.185 38.5322 216.61 38.0644 216.21 37.4304C215.816 36.7964 215.625 35.9993 215.637 35.0391V21.4205ZM229.011 39.2401C228.106 39.2401 227.303 39.0893 226.601 38.7876C225.906 38.4799 225.355 38.0182 224.949 37.4027C224.548 36.781 224.348 36.0024 224.348 35.0668C224.348 34.2789 224.487 33.6141 224.764 33.0724C225.041 32.5308 225.422 32.0907 225.909 31.7521C226.395 31.4136 226.955 31.1581 227.589 30.9858C228.223 30.8073 228.9 30.6873 229.62 30.6257C230.427 30.5518 231.076 30.4749 231.569 30.3949C232.061 30.3087 232.418 30.1887 232.64 30.0348C232.867 29.8748 232.981 29.6501 232.981 29.3608V29.3146C232.981 28.8407 232.818 28.4744 232.492 28.2159C232.166 27.9574 231.725 27.8281 231.172 27.8281C230.574 27.8281 230.094 27.9574 229.731 28.2159C229.368 28.4744 229.137 28.8314 229.039 29.2869L224.875 29.1392C224.998 28.2775 225.315 27.508 225.826 26.831C226.343 26.1477 227.051 25.6122 227.949 25.2244C228.854 24.8305 229.94 24.6335 231.208 24.6335C232.113 24.6335 232.947 24.7412 233.711 24.9567C234.474 25.166 235.139 25.4737 235.705 25.88C236.271 26.2801 236.708 26.7725 237.016 27.3572C237.33 27.942 237.487 28.6098 237.487 29.3608V39H233.24V37.0241H233.129C232.877 37.5043 232.553 37.9105 232.159 38.2429C231.772 38.5753 231.313 38.8246 230.784 38.9908C230.261 39.157 229.67 39.2401 229.011 39.2401ZM230.405 36.2855C230.891 36.2855 231.328 36.187 231.716 35.9901C232.11 35.7931 232.424 35.5223 232.658 35.1776C232.892 34.8267 233.009 34.4205 233.009 33.9588V32.6108C232.88 32.6785 232.723 32.7401 232.538 32.7955C232.359 32.8509 232.163 32.9032 231.947 32.9524C231.732 33.0017 231.51 33.0447 231.282 33.0817C231.055 33.1186 230.836 33.1525 230.627 33.1832C230.202 33.2509 229.839 33.3556 229.537 33.4972C229.242 33.6387 229.014 33.8234 228.854 34.0511C228.7 34.2727 228.623 34.5374 228.623 34.8452C228.623 35.313 228.789 35.67 229.122 35.9162C229.46 36.1624 229.888 36.2855 230.405 36.2855ZM244.762 20.0909V39H240.248V20.0909H244.762Z" fill="#4C4C4C"/>
<path d="M225.196 51.7012L223.477 54.5205H221.748L223.839 51.2891C223.641 51.2053 223.442 51.083 223.241 50.9222C223.043 50.7614 222.879 50.547 222.748 50.279C222.617 50.0076 222.552 49.6726 222.552 49.2739C222.552 48.5938 222.795 48.0745 223.281 47.716C223.767 47.3542 224.448 47.1732 225.326 47.1732H227.718V54.5205H226.16V51.7012H225.196ZM226.16 48.4497H225.391C225.123 48.4497 224.894 48.4815 224.703 48.5452C224.515 48.6089 224.371 48.7094 224.271 48.8467C224.174 48.9807 224.125 49.16 224.125 49.3844C224.125 49.7094 224.232 49.9657 224.447 50.1533C224.661 50.341 224.989 50.4348 225.432 50.4348H226.16V48.4497Z" fill="#4C4C4C"/>
<path d="M219.109 54.5205V47.1732H220.667V54.5205H219.109Z" fill="#4C4C4C"/>
<path d="M217.769 47.1732V48.4598H214.683V54.5205H213.125V47.1732H217.769Z" fill="#4C4C4C"/>
<path d="M211.397 50.8367C211.397 51.4029 211.326 51.9188 211.186 52.3845C211.045 52.8469 210.831 53.2456 210.542 53.5806C210.258 53.9156 209.896 54.1736 209.457 54.3545C209.018 54.5321 208.499 54.6209 207.899 54.6209C207.299 54.6209 206.78 54.5321 206.341 54.3545C205.902 54.1736 205.539 53.9156 205.251 53.5806C204.966 53.2456 204.753 52.8452 204.612 52.3795C204.472 51.9138 204.401 51.3962 204.401 50.8266C204.401 50.0661 204.525 49.4044 204.773 48.8416C205.025 48.2754 205.41 47.8365 205.929 47.5249C206.448 47.2133 207.108 47.0576 207.909 47.0576C208.706 47.0576 209.361 47.2133 209.874 47.5249C210.39 47.8365 210.772 48.2754 211.02 48.8416C211.271 49.4078 211.397 50.0728 211.397 50.8367ZM206.035 50.8367C206.035 51.3493 206.098 51.7915 206.226 52.1634C206.356 52.5319 206.559 52.8167 206.834 53.0177C207.108 53.2154 207.464 53.3142 207.899 53.3142C208.341 53.3142 208.7 53.2154 208.975 53.0177C209.249 52.8167 209.449 52.5319 209.573 52.1634C209.7 51.7915 209.764 51.3493 209.764 50.8367C209.764 50.0661 209.619 49.4597 209.331 49.0175C209.043 48.5752 208.569 48.3541 207.909 48.3541C207.47 48.3541 207.112 48.4546 206.834 48.6556C206.559 48.8533 206.356 49.1381 206.226 49.51C206.098 49.8785 206.035 50.3207 206.035 50.8367Z" fill="#4C4C4C"/>
<path d="M202.668 54.5205H201.115V48.4698H199.316C199.275 48.7847 199.232 49.1281 199.185 49.5C199.138 49.8719 199.089 50.2471 199.039 50.6257C198.989 51.0043 198.935 51.3645 198.878 51.7062C198.825 52.0479 198.771 52.3478 198.718 52.6058C198.63 53.0346 198.511 53.3998 198.361 53.7013C198.213 53.9995 198.011 54.2273 197.753 54.3848C197.498 54.5422 197.165 54.621 196.753 54.621C196.615 54.621 196.483 54.6109 196.356 54.5908C196.232 54.5707 196.116 54.5439 196.009 54.5104V53.2339C196.096 53.2641 196.183 53.2892 196.27 53.3093C196.357 53.3261 196.453 53.3344 196.557 53.3344C196.691 53.3344 196.801 53.2909 196.888 53.2038C196.979 53.1133 197.059 52.9609 197.129 52.7465C197.2 52.5287 197.27 52.2288 197.341 51.8469C197.371 51.6794 197.411 51.4432 197.461 51.1383C197.511 50.8301 197.568 50.4699 197.632 50.0579C197.696 49.6424 197.761 49.1901 197.828 48.701C197.898 48.2118 197.965 47.7026 198.029 47.1732H202.668V54.5205Z" fill="#4C4C4C"/>
<path d="M195.124 50.8367C195.124 51.4029 195.054 51.9188 194.913 52.3845C194.773 52.8469 194.558 53.2456 194.27 53.5806C193.985 53.9156 193.623 54.1736 193.185 54.3545C192.746 54.5321 192.226 54.6209 191.627 54.6209C191.027 54.6209 190.508 54.5321 190.069 54.3545C189.63 54.1736 189.266 53.9156 188.978 53.5806C188.693 53.2456 188.481 52.8452 188.34 52.3795C188.199 51.9138 188.129 51.3962 188.129 50.8266C188.129 50.0661 188.253 49.4044 188.501 48.8416C188.752 48.2754 189.137 47.8365 189.657 47.5249C190.176 47.2133 190.836 47.0576 191.637 47.0576C192.434 47.0576 193.089 47.2133 193.602 47.5249C194.118 47.8365 194.499 48.2754 194.747 48.8416C194.999 49.4078 195.124 50.0728 195.124 50.8367ZM189.762 50.8367C189.762 51.3493 189.826 51.7915 189.953 52.1634C190.084 52.5319 190.286 52.8167 190.561 53.0177C190.836 53.2154 191.191 53.3142 191.627 53.3142C192.069 53.3142 192.427 53.2154 192.702 53.0177C192.977 52.8167 193.176 52.5319 193.3 52.1634C193.427 51.7915 193.491 51.3493 193.491 50.8367C193.491 50.0661 193.347 49.4597 193.059 49.0175C192.771 48.5752 192.297 48.3541 191.637 48.3541C191.198 48.3541 190.839 48.4546 190.561 48.6556C190.286 48.8533 190.084 49.1381 189.953 49.51C189.826 49.8785 189.762 50.3207 189.762 50.8367Z" fill="#4C4C4C"/>
<path d="M185.124 54.5205H183.566V48.4698H181.571V47.1732H187.119V48.4698H185.124V54.5205Z" fill="#4C4C4C"/>
<path d="M179.476 54.5206L178.943 52.7717H176.265L175.732 54.5206H174.054L176.647 47.1432H178.551L181.155 54.5206H179.476ZM178.572 51.4651L178.039 49.7565C178.005 49.6425 177.96 49.4968 177.903 49.3192C177.85 49.1383 177.794 48.9557 177.737 48.7715C177.684 48.5838 177.64 48.4214 177.607 48.284C177.573 48.4214 177.526 48.5922 177.466 48.7966C177.409 48.9976 177.354 49.1886 177.3 49.3695C177.247 49.5504 177.208 49.6794 177.185 49.7565L176.657 51.4651H178.572Z" fill="#4C4C4C"/>
<path d="M168.174 54.5205L166.405 48.7563H166.36C166.367 48.8936 166.377 49.1013 166.39 49.3794C166.407 49.6541 166.422 49.9473 166.435 50.2589C166.449 50.5705 166.456 50.8519 166.456 51.1031V54.5205H165.063V47.1732H167.184L168.923 52.7917H168.953L170.798 47.1732H172.918V54.5205H171.466V51.0428C171.466 50.8117 171.469 50.5453 171.476 50.2438C171.486 49.9423 171.498 49.6558 171.511 49.3844C171.525 49.1097 171.535 48.9037 171.541 48.7663H171.496L169.601 54.5205H168.174Z" fill="#4C4C4C"/>
<path d="M163.334 50.8367C163.334 51.4029 163.264 51.9188 163.123 52.3845C162.983 52.8469 162.768 53.2456 162.48 53.5806C162.195 53.9156 161.833 54.1736 161.394 54.3545C160.956 54.5321 160.436 54.6209 159.837 54.6209C159.237 54.6209 158.718 54.5321 158.279 54.3545C157.84 54.1736 157.476 53.9156 157.188 53.5806C156.903 53.2456 156.691 52.8452 156.55 52.3795C156.409 51.9138 156.339 51.3962 156.339 50.8266C156.339 50.0661 156.463 49.4044 156.711 48.8416C156.962 48.2754 157.347 47.8365 157.867 47.5249C158.386 47.2133 159.046 47.0576 159.847 47.0576C160.644 47.0576 161.299 47.2133 161.812 47.5249C162.328 47.8365 162.709 48.2754 162.957 48.8416C163.209 49.4078 163.334 50.0728 163.334 50.8367ZM157.972 50.8367C157.972 51.3493 158.036 51.7915 158.163 52.1634C158.294 52.5319 158.496 52.8167 158.771 53.0177C159.046 53.2154 159.401 53.3142 159.837 53.3142C160.279 53.3142 160.637 53.2154 160.912 53.0177C161.187 52.8167 161.386 52.5319 161.51 52.1634C161.637 51.7915 161.701 51.3493 161.701 50.8367C161.701 50.0661 161.557 49.4597 161.269 49.0175C160.981 48.5752 160.507 48.3541 159.847 48.3541C159.408 48.3541 159.049 48.4546 158.771 48.6556C158.496 48.8533 158.294 49.1381 158.163 49.51C158.036 49.8785 157.972 50.3207 157.972 50.8367Z" fill="#4C4C4C"/>
<path d="M153.334 54.5205H151.776V48.4698H149.781V47.1732H155.329V48.4698H153.334V54.5205Z" fill="#4C4C4C"/>
<path d="M146.851 48.3643C146.553 48.3643 146.288 48.4229 146.057 48.5401C145.829 48.6541 145.636 48.8199 145.479 49.0377C145.325 49.2554 145.207 49.5184 145.127 49.8267C145.047 50.1349 145.006 50.4816 145.006 50.8669C145.006 51.3862 145.07 51.8301 145.197 52.1987C145.328 52.5639 145.529 52.8436 145.8 53.0379C146.072 53.2289 146.422 53.3244 146.851 53.3244C147.149 53.3244 147.447 53.2909 147.745 53.2239C148.047 53.1569 148.373 53.0614 148.725 52.9374V54.244C148.4 54.378 148.08 54.4735 147.765 54.5305C147.45 54.5908 147.097 54.6209 146.705 54.6209C145.948 54.6209 145.325 54.4651 144.836 54.1536C144.35 53.8386 143.99 53.3997 143.755 52.8369C143.521 52.2707 143.403 51.6107 143.403 50.8569C143.403 50.3007 143.479 49.7915 143.629 49.3291C143.78 48.8668 144.001 48.4664 144.293 48.1281C144.584 47.7897 144.944 47.5284 145.373 47.3441C145.802 47.1598 146.295 47.0677 146.851 47.0677C147.216 47.0677 147.581 47.1146 147.946 47.2084C148.315 47.2989 148.667 47.4245 149.002 47.5853L148.499 48.8517C148.224 48.7211 147.948 48.6071 147.67 48.51C147.392 48.4128 147.119 48.3643 146.851 48.3643Z" fill="#4C4C4C"/>
<path d="M138.037 54.5206L137.504 52.7717H134.825L134.293 54.5206H132.614L135.207 47.1432H137.112L139.715 54.5206H138.037ZM137.132 51.4651L136.599 49.7565C136.566 49.6425 136.521 49.4968 136.464 49.3192C136.41 49.1383 136.355 48.9557 136.298 48.7715C136.244 48.5838 136.201 48.4214 136.167 48.284C136.134 48.4214 136.087 48.5922 136.027 48.7966C135.97 48.9976 135.914 49.1886 135.861 49.3695C135.807 49.5504 135.769 49.6794 135.745 49.7565L135.217 51.4651H137.132Z" fill="#4C4C4C"/>
<path d="M131.474 54.5205H129.921V51.3494H127.011V54.5205H125.453V47.1732H127.011V50.0528H129.921V47.1732H131.474V54.5205Z" fill="#4C4C4C"/>
<path d="M116.775 47.1731H118.177V50.7211C118.177 50.8953 118.174 51.0879 118.167 51.299C118.164 51.5101 118.157 51.7178 118.147 51.9221C118.141 52.1232 118.134 52.2991 118.127 52.4498C118.121 52.6006 118.114 52.7011 118.107 52.7513H118.137L121.529 47.1731H123.394V54.5203H122.007V50.9924C122.007 50.8048 122.01 50.6005 122.017 50.3793C122.024 50.1582 122.032 49.9438 122.042 49.7361C122.055 49.5284 122.067 49.3491 122.077 49.1984C122.087 49.0442 122.094 48.9421 122.097 48.8918H122.057L118.65 54.5203H116.775V47.1731ZM122.695 44.7559C122.659 45.111 122.558 45.4242 122.394 45.6956C122.23 45.967 121.973 46.1781 121.625 46.3288C121.277 46.4796 120.807 46.555 120.218 46.555C119.611 46.555 119.139 46.4829 118.801 46.3389C118.462 46.1915 118.221 45.9837 118.077 45.7157C117.933 45.4443 117.846 45.1244 117.816 44.7559H119.188C119.218 45.1344 119.313 45.3857 119.474 45.5097C119.635 45.6303 119.893 45.6906 120.248 45.6906C120.543 45.6906 120.784 45.6236 120.972 45.4896C121.159 45.3556 121.271 45.111 121.308 44.7559H122.695Z" fill="#4C4C4C"/>
<path d="M115.031 54.5205H110.8V47.1732H115.031V48.4497H112.358V50.0629H114.845V51.3393H112.358V53.2339H115.031V54.5205Z" fill="#4C4C4C"/>
<path d="M103.996 54.5205L102.227 48.7563H102.181C102.188 48.8936 102.198 49.1013 102.211 49.3794C102.228 49.6541 102.243 49.9473 102.257 50.2589C102.27 50.5705 102.277 50.8519 102.277 51.1031V54.5205H100.885V47.1732H103.006L104.744 52.7917H104.774L106.619 47.1732H108.74V54.5205H107.287V51.0428C107.287 50.8117 107.291 50.5453 107.297 50.2438C107.307 49.9423 107.319 49.6558 107.332 49.3844C107.346 49.1097 107.356 48.9037 107.363 48.7663H107.317L105.423 54.5205H103.996Z" fill="#4C4C4C"/>
<path d="M97.2715 54.5205V47.1732H98.8294V54.5205H97.2715Z" fill="#4C4C4C"/>
<path d="M93.6232 48.3643C93.3251 48.3643 93.0604 48.4229 92.8292 48.5401C92.6014 48.6541 92.4088 48.8199 92.2513 49.0377C92.0972 49.2554 91.9799 49.5184 91.8995 49.8267C91.8191 50.1349 91.7789 50.4816 91.7789 50.8669C91.7789 51.3862 91.8426 51.8301 91.9699 52.1987C92.1005 52.5639 92.3015 52.8436 92.5729 53.0379C92.8443 53.2289 93.1944 53.3244 93.6232 53.3244C93.9214 53.3244 94.2196 53.2909 94.5178 53.2239C94.8193 53.1569 95.1459 53.0614 95.4977 52.9374V54.244C95.1727 54.378 94.8528 54.4735 94.5379 54.5305C94.2229 54.5908 93.8695 54.6209 93.4775 54.6209C92.7203 54.6209 92.0972 54.4651 91.608 54.1536C91.1222 53.8386 90.7621 53.3997 90.5276 52.8369C90.293 52.2707 90.1758 51.6107 90.1758 50.8569C90.1758 50.3007 90.2512 49.7915 90.4019 49.3291C90.5527 48.8668 90.7738 48.4664 91.0653 48.1281C91.3568 47.7897 91.7169 47.5284 92.1458 47.3441C92.5746 47.1598 93.0671 47.0677 93.6232 47.0677C93.9884 47.0677 94.3536 47.1146 94.7188 47.2084C95.0873 47.2989 95.4391 47.4245 95.7741 47.5853L95.2716 48.8517C94.9969 48.7211 94.7205 48.6071 94.4424 48.51C94.1643 48.4128 93.8913 48.3643 93.6232 48.3643Z" fill="#4C4C4C"/>
<g clip-path="url(#clip0_88_931)">
<path d="M35.7715 28.5054C35.3547 28.546 34.9358 28.6152 34.519 28.6213C29.4459 28.6741 24.6404 27.3647 19.8717 25.8195C15.3053 24.3414 12.0893 25.3885 9.99512 28.9893C8.86935 30.9228 8.32179 33.0353 8.20737 35.2637C7.90294 41.1803 9.19625 46.857 11.3068 52.2938C13.6135 58.2388 16.3452 64.0192 18.891 69.8728C19.0197 70.1696 19.1586 70.4624 19.0912 70.9341C18.8358 70.7145 18.56 70.5153 18.3271 70.2733C10.7 62.3439 5.26728 53.1335 2.03503 42.6462C0.631386 38.0919 -0.145009 33.4359 0.0225286 28.668C0.132858 25.5308 0.792795 22.5054 2.57442 19.8256C4.82188 16.4465 8.15425 15.3689 12.0158 15.5458C16.4086 15.747 19.8942 18.0202 23.3246 20.4742C26.4629 22.7189 29.6808 24.8578 32.9151 26.9662C33.7712 27.5254 34.8153 27.8019 35.7735 28.2085C35.7735 28.3081 35.7735 28.4057 35.7715 28.5054Z" fill="#E02E31"/>
<path d="M43.2676 69.5292C43.1512 68.1426 42.9632 66.7559 42.9326 65.3673C42.7732 58.2633 44.0869 51.3931 46.2894 44.6571C47.454 41.095 48.5532 37.5104 49.5544 33.9015C49.8445 32.8585 49.8241 31.6792 49.7076 30.5874C49.4481 28.1781 48.116 26.7955 45.6969 26.3868C42.9857 25.9293 40.2438 25.6447 37.5366 25.1649C34.7314 24.6667 32.1427 23.5566 29.744 22.0236C29.5295 21.8873 29.3558 21.6901 28.8818 21.2774C29.8401 21.3831 30.4571 21.4095 31.0557 21.5254C35.8612 22.4566 40.5012 21.5559 45.1678 20.4722C47.9914 19.8176 50.9213 19.169 53.7857 19.2442C57.5349 19.3418 59.2144 21.8284 58.9243 25.5878C58.5115 30.9391 56.5726 35.8147 54.4212 40.6537C51.6895 46.7981 48.919 52.9322 46.4468 59.1802C45.2495 62.2077 44.6958 65.4852 43.852 68.6509C43.7723 68.9538 43.6906 69.2547 43.6109 69.5577C43.4965 69.5475 43.3841 69.5394 43.2697 69.5292H43.2676Z" fill="#E02E31"/>
<path d="M1.13974 6.27848C1.12339 2.79765 3.88368 0.0182671 7.37542 -3.17109e-05C10.955 -0.0183305 13.7541 2.74478 13.7991 6.34151C13.842 9.77151 10.9591 12.616 7.41628 12.6343C3.90003 12.6546 1.152 9.87114 1.1377 6.27848H1.13974Z" fill="#E02E31"/>
<path d="M21.222 63.1511C21.222 62.226 21.1566 61.2948 21.2343 60.3758C21.5346 56.7649 21.9596 53.1763 23.6452 49.8784C25.4432 46.359 28.5079 45.7165 31.6012 48.1929C34.1613 50.2424 35.9654 52.9038 37.0973 55.8784C38.4131 59.3348 39.2977 62.9539 40.3581 66.5059C40.4113 66.6848 40.3643 66.8963 40.3643 67.4961C39.9802 66.9126 39.7575 66.636 39.6022 66.327C37.6939 62.5412 35.6609 58.8347 32.6391 55.7808C32.0017 55.1363 31.2764 54.5467 30.5081 54.0668C28.1892 52.6192 25.8804 52.9567 24.5442 55.3233C23.3326 57.4724 22.6318 59.9062 21.7185 62.2199C21.598 62.5229 21.5489 62.8543 21.4672 63.1715C21.3855 63.1633 21.3038 63.1572 21.222 63.1491V63.1511Z" fill="#E02E31"/>
<path d="M59.2495 11.3878C59.2597 14.4559 56.8815 16.8592 53.8086 16.8856C50.7276 16.912 48.1961 14.458 48.1798 11.4265C48.1634 8.38481 50.6458 5.92057 53.7535 5.89617C56.7385 5.87177 59.2373 8.37057 59.2475 11.3878H59.2495Z" fill="#E02E31"/>
<path d="M28.9959 44.6897C26.6586 44.651 24.8524 42.7846 24.8892 40.4443C24.926 38.1143 26.775 36.4166 29.233 36.4593C31.5233 36.4999 33.2968 38.3725 33.2375 40.6883C33.1783 42.9879 31.3333 44.7283 28.9959 44.6897Z" fill="#E02E31"/>
</g>
<defs>
<clipPath id="clip0_88_931">
<rect width="59.2492" height="70.9321" fill="white"/>
</clipPath>
</defs>
</svg>
