<svg aria-hidden="true" style="position: absolute; width: 0; height: 0; overflow: hidden;" version="1.1" xmlns="http://www.w3.org/2000/svg" xmlns:xlink="http://www.w3.org/1999/xlink">
<defs>
<symbol id="icon-telegram" viewBox="0 0 32 32">
  <path fill="#28A7E8" style="fill: var(--color1, #28A7E8)" d="M16 0c-4.242 0-8.315 1.687-11.313 4.686-3.001 3.001-4.687 7.070-4.688 11.314 0 4.242 1.688 8.314 4.688 11.314 2.998 3 7.070 4.686 11.313 4.686s8.315-1.687 11.313-4.686c3-2.999 4.687-7.072 4.687-11.314s-1.687-8.314-4.687-11.314c-2.998-2.999-7.070-4.686-11.313-4.686z"></path>
  <path fill="#fff" style="fill: var(--color2, #fff)" d="M7.242 15.831c4.665-2.032 7.775-3.372 9.33-4.019 4.445-1.848 5.367-2.169 5.97-2.18 0.132-0.002 0.427 0.031 0.62 0.186 0.16 0.131 0.205 0.309 0.227 0.433 0.020 0.125 0.048 0.408 0.025 0.63-0.24 2.53-1.282 8.669-1.812 11.503-0.223 1.199-0.665 1.601-1.093 1.64-0.93 0.086-1.635-0.614-2.535-1.204-1.407-0.923-2.202-1.498-3.57-2.399-1.58-1.041-0.555-1.613 0.345-2.548 0.235-0.245 4.33-3.969 4.408-4.306 0.010-0.042 0.020-0.2-0.075-0.283-0.093-0.083-0.23-0.055-0.33-0.032-0.143 0.032-2.39 1.519-6.75 4.461-0.638 0.439-1.215 0.652-1.735 0.641-0.57-0.012-1.67-0.323-2.488-0.588-1-0.326-1.797-0.498-1.727-1.051 0.035-0.288 0.433-0.583 1.19-0.884z"></path>
</symbol>
<symbol id="icon-tel" viewBox="0 0 32 32">
  <path fill="#ff304f" style="fill: var(--color4, #ff304f)" d="M0 16c0-8.837 7.163-16 16-16s16 7.163 16 16c0 8.837-7.163 16-16 16s-16-7.163-16-16z"></path>
  <path fill="#fff" style="fill: var(--color5, #fff)" d="M11.314 8.033c0.194-0.016 0.361 0.031 0.469 0.209 0.242 0.392 0.485 0.784 0.715 1.185 0.266 0.464 0.511 0.94 0.772 1.409 0.067 0.126 0.16 0.24 0.238 0.361 0.072 0.114 0.14 0.232 0.207 0.346 0.137 0.26 0.131 0.521-0.073 0.728-0.291 0.297-0.611 0.573-0.919 0.856-0.258 0.237-0.526 0.464-0.777 0.705-0.196 0.189-0.247 0.426-0.114 0.676 0.204 0.382 0.407 0.764 0.63 1.138 0.829 1.383 1.889 2.558 3.228 3.465 0.516 0.351 1.053 0.673 1.595 0.98 0.511 0.289 0.71 0.24 1.107-0.202 0.369-0.41 0.725-0.826 1.092-1.239 0.088-0.1 0.194-0.188 0.297-0.273 0.209-0.176 0.438-0.196 0.678-0.075 0.067 0.033 0.139 0.062 0.198 0.105 0.637 0.455 1.349 0.777 2.021 1.164 0.361 0.207 0.712 0.429 1.066 0.642 0.191 0.113 0.268 0.278 0.255 0.505-0.036 0.638-0.142 1.265-0.513 1.804-0.155 0.224-0.375 0.42-0.597 0.578-0.616 0.431-1.303 0.697-2.034 0.861-0.664 0.149-1.327 0.095-1.964-0.105-1.229-0.379-2.441-0.813-3.556-1.471-1.012-0.599-1.933-1.322-2.785-2.131-1.079-1.027-2.043-2.147-2.821-3.422-0.508-0.828-0.87-1.719-1.198-2.629-0.199-0.549-0.395-1.092-0.483-1.674-0.101-0.658-0.031-1.291 0.18-1.915 0.189-0.563 0.426-1.102 0.784-1.584 0.281-0.374 0.632-0.648 1.086-0.771 0.364-0.096 0.731-0.173 1.097-0.258 0.047 0.038 0.085 0.038 0.122 0.033z"></path>
</symbol>
<symbol id="icon-viber" viewBox="0 0 32 32">
  <path fill="#7f4da0" style="fill: var(--color6, #7f4da0)" d="M16 0c8.837 0 16 7.163 16 16s-7.163 16-16 16c-8.837 0-16-7.163-16-16s7.163-16 16-16z"></path>
  <path fill="#fff" style="fill: var(--color5, #fff)" d="M20.263 13.972c-0.078-0.632-0.272-1.129-0.617-1.568-0.448-0.566-1.021-0.905-1.869-1.106-0.552-0.134-0.776-0.119-0.975 0.064-0.186 0.171-0.223 0.514-0.080 0.736 0.1 0.161 0.215 0.219 0.536 0.282 0.427 0.079 0.723 0.181 0.991 0.334 0.57 0.329 0.836 0.845 0.864 1.679 0.013 0.392 0.047 0.512 0.184 0.651 0.254 0.254 0.705 0.205 0.896-0.099 0.070-0.115 0.081-0.164 0.088-0.43 0.005-0.165-0.002-0.41-0.019-0.541v0z"></path>
  <path fill="#fff" style="fill: var(--color5, #fff)" d="M22.496 14.685c-0.113-1.937-0.87-3.495-2.226-4.592-0.764-0.616-1.687-1.040-2.699-1.246-0.371-0.074-1.053-0.133-1.171-0.099-0.111 0.032-0.267 0.151-0.337 0.259-0.074 0.117-0.090 0.379-0.027 0.531 0.101 0.253 0.29 0.343 0.819 0.389 0.815 0.071 1.655 0.358 2.29 0.781 0.725 0.482 1.301 1.142 1.674 1.918 0.322 0.666 0.52 1.626 0.515 2.486-0.002 0.311 0.046 0.487 0.171 0.615 0.189 0.197 0.464 0.241 0.707 0.109 0.269-0.142 0.332-0.39 0.285-1.153v0z"></path>
  <path fill="#fff" style="fill: var(--color5, #fff)" d="M24.968 22.144c-0.038-0.111-0.126-0.281-0.189-0.38-0.398-0.601-2.536-2.274-3.603-2.821-0.609-0.313-1.061-0.417-1.396-0.319-0.36 0.101-0.549 0.269-1.153 1.018-0.243 0.3-0.493 0.582-0.559 0.626-0.164 0.114-0.486 0.206-0.714 0.206-0.527-0.003-1.484-0.345-2.22-0.794-0.571-0.348-1.304-0.971-1.866-1.588-0.663-0.724-1.115-1.363-1.472-2.084-0.461-0.927-0.578-1.493-0.385-1.907 0.047-0.104 0.111-0.215 0.139-0.25 0.028-0.031 0.325-0.275 0.654-0.541 0.644-0.512 0.748-0.629 0.868-0.98 0.152-0.446 0.111-0.901-0.123-1.36-0.18-0.348-0.651-1.107-0.992-1.597-0.452-0.645-1.576-2.024-1.8-2.211-0.404-0.329-0.922-0.386-1.494-0.164-0.603 0.234-1.734 1.145-2.217 1.781-0.436 0.576-0.603 0.984-0.628 1.521-0.022 0.443 0.016 0.626 0.249 1.192 1.828 4.44 4.557 7.985 8.305 10.8 1.958 1.471 3.988 2.59 6.095 3.355 1.228 0.446 1.762 0.468 2.39 0.101 0.265-0.158 0.922-0.832 1.288-1.322 0.606-0.816 0.831-1.192 0.894-1.493 0.044-0.206 0.009-0.563-0.073-0.791v0z"></path>
  <path fill="#fff" style="fill: var(--color5, #fff)" d="M24.77 15.13c-0.040-1.096-0.225-1.994-0.609-2.996-0.38-0.986-0.764-1.629-1.49-2.499-0.686-0.816-1.219-1.281-2.065-1.8-1.179-0.722-2.615-1.2-4.223-1.401-0.549-0.070-0.673-0.065-0.841 0.047-0.326 0.213-0.322 0.743 0.005 0.953 0.108 0.067 0.204 0.091 0.643 0.148 0.674 0.091 1.107 0.176 1.621 0.316 2.015 0.551 3.565 1.677 4.601 3.349 0.867 1.393 1.227 2.787 1.176 4.566-0.018 0.602-0.005 0.707 0.087 0.852 0.176 0.269 0.641 0.323 0.879 0.099 0.148-0.136 0.176-0.239 0.205-0.753 0.014-0.269 0.017-0.665 0.011-0.882v0z"></path>
</symbol>
<symbol id="icon-chevron" viewBox="0 0 32 32">
  <path d="M7.057 11.057c0.521-0.521 1.365-0.521 1.886 0l7.057 7.057 7.057-7.057c0.521-0.521 1.365-0.521 1.886 0s0.521 1.365 0 1.886l-8 8c-0.521 0.521-1.365 0.521-1.886 0l-8-8c-0.521-0.521-0.521-1.365 0-1.886z"></path>
</symbol>
</defs>
</svg>
