<?xml version="1.0" standalone="no"?>
<!DOCTYPE svg PUBLIC "-//W3C//DTD SVG 20010904//EN"
 "http://www.w3.org/TR/2001/REC-SVG-20010904/DTD/svg10.dtd">
<svg version="1.0" xmlns="http://www.w3.org/2000/svg"
 width="1136.000000pt" height="1136.000000pt" viewBox="0 0 1136.000000 1136.000000"
 preserveAspectRatio="xMidYMid meet">
<metadata>
Created by potrace 1.14, written by Peter Selinger 2001-2017
</metadata>
<g transform="translate(0.000000,1136.000000) scale(0.100000,-0.100000)"
fill="#000000" stroke="none">
<path d="M1949 11356 c-3 -3 -20 -7 -39 -10 -73 -10 -106 -17 -140 -30 -19 -8
-37 -14 -40 -15 -3 -1 -16 -4 -29 -8 -38 -10 -172 -82 -213 -115 -21 -16 -38
-27 -38 -23 0 9 -149 -142 -180 -183 -14 -18 -29 -38 -35 -45 -11 -13 -27 -43
-68 -118 -28 -54 -49 -105 -60 -151 -2 -7 -6 -22 -10 -33 -6 -21 -13 -51 -24
-120 -9 -52 -9 -237 0 -295 19 -129 52 -233 112 -345 26 -50 50 -92 54 -95 3
-3 14 -17 23 -31 42 -66 178 -193 263 -246 83 -52 234 -116 300 -128 11 -2 31
-6 45 -9 14 -3 46 -7 72 -8 27 -2 48 -5 48 -8 0 -3 26 -4 57 -3 32 1 58 2 58
3 0 0 89 8 143 12 6 1 12 5 12 10 0 5 5 6 10 3 12 -7 121 23 186 52 21 9 41
17 44 17 11 2 146 80 173 100 43 32 190 177 217 214 47 64 145 242 134 242 -3
0 0 9 6 21 6 11 13 29 16 40 2 10 7 29 10 42 3 12 7 31 9 42 2 11 4 20 5 20
12 0 17 296 6 345 -3 14 -10 48 -17 75 -6 28 -13 57 -16 65 -3 8 -8 23 -10 33
-6 36 -71 166 -118 239 -52 79 -236 268 -263 268 -3 0 -13 6 -21 14 -19 16
-140 80 -161 84 -8 2 -17 8 -18 13 -2 5 -8 6 -13 3 -6 -3 -15 -1 -22 4 -31 25
-196 55 -328 58 -74 3 -137 2 -140 0z"/>
<path d="M9370 10407 c0 -4 -4 -6 -8 -3 -8 5 -122 -18 -152 -31 -8 -3 -22 -7
-31 -9 -44 -9 -224 -110 -265 -149 -6 -5 -26 -24 -45 -40 -45 -40 -129 -139
-129 -153 0 -6 -4 -12 -9 -14 -14 -5 -88 -158 -105 -219 -26 -90 -30 -126 -29
-264 0 -83 7 -155 17 -200 17 -72 111 -275 127 -275 5 0 9 -4 9 -10 0 -14 24
-42 102 -122 36 -37 71 -68 76 -68 6 0 12 -3 14 -7 9 -21 147 -100 218 -125
122 -44 165 -51 305 -52 77 -1 156 2 175 6 65 12 154 39 167 50 7 6 13 7 13 3
0 -4 7 -2 15 5 8 7 15 10 15 6 0 -3 18 5 40 19 22 14 43 25 47 25 9 0 111 79
162 125 53 48 129 154 169 235 20 41 37 80 39 85 1 6 12 44 24 85 31 109 31
333 0 440 -26 90 -25 88 -41 125 -7 17 -14 32 -14 35 -1 3 -17 32 -36 65 -31
54 -46 75 -75 109 -6 6 -22 26 -37 43 -33 40 -120 116 -174 150 -43 29 -134
73 -149 73 -8 0 -15 4 -15 8 0 7 -47 22 -117 37 -13 3 -33 8 -45 11 -37 9
-258 10 -258 1z"/>
<path d="M2536 8873 c-2 -2 -32 -5 -67 -8 -79 -5 -130 -12 -214 -29 -55 -12
-160 -39 -190 -50 -81 -31 -95 -35 -95 -30 0 3 -7 -2 -16 -10 -8 -9 -20 -14
-25 -11 -5 4 -9 1 -9 -4 0 -6 -3 -10 -7 -9 -13 2 -86 -33 -130 -63 -23 -16
-46 -29 -52 -29 -6 0 -11 -4 -11 -10 0 -5 -6 -10 -13 -10 -7 0 -22 -8 -33 -17
-10 -10 -36 -31 -57 -46 -51 -39 -196 -183 -232 -232 -17 -22 -33 -42 -36 -45
-13 -11 -108 -160 -114 -179 -3 -12 -10 -21 -14 -21 -3 0 -31 -51 -61 -112
-30 -62 -59 -116 -63 -119 -5 -3 -9 -10 -8 -15 0 -15 -11 -59 -19 -69 -4 -5
-22 -55 -40 -110 -17 -55 -34 -107 -37 -115 -7 -18 -9 -27 -16 -60 -3 -14 -10
-44 -15 -67 -5 -23 -7 -44 -4 -48 3 -3 0 -5 -7 -5 -6 0 -11 -6 -10 -12 3 -16
-12 -120 -18 -131 -3 -5 -7 -32 -9 -60 -2 -29 -6 -63 -9 -77 -13 -61 -19 -237
-19 -510 0 -297 6 -430 30 -640 3 -30 8 -75 9 -100 2 -25 4 -45 5 -45 3 0 10
-41 15 -90 3 -27 7 -61 9 -75 6 -32 15 -81 27 -150 5 -30 11 -66 14 -80 22
-113 40 -200 62 -290 13 -58 26 -112 28 -120 1 -8 8 -35 15 -60 7 -25 13 -49
14 -55 2 -5 8 -30 15 -55 7 -25 15 -54 17 -64 2 -11 22 -77 44 -147 22 -69 40
-131 40 -138 0 -6 4 -19 9 -29 8 -13 112 -321 116 -342 1 -3 9 -22 18 -44 9
-21 17 -42 17 -46 0 -4 9 -29 19 -56 11 -27 34 -87 52 -134 19 -47 34 -87 34
-90 1 -3 9 -22 18 -44 9 -21 17 -40 17 -42 0 -6 137 -328 165 -389 13 -27 53
-112 89 -189 36 -76 66 -143 66 -147 0 -5 5 -9 10 -9 6 0 10 -6 10 -12 0 -12
109 -237 120 -248 3 -3 25 -43 49 -90 24 -47 49 -88 55 -92 6 -4 8 -8 4 -8 -4
0 6 -22 22 -49 17 -26 30 -53 30 -60 0 -6 5 -11 10 -11 6 0 10 -5 10 -10 0 -6
18 -40 40 -76 22 -36 40 -68 40 -69 0 -6 129 -215 171 -278 22 -32 39 -59 39
-61 0 -2 29 -48 65 -103 36 -54 70 -105 76 -113 9 -14 152 -218 201 -288 13
-18 31 -43 40 -55 28 -36 30 -38 92 -122 33 -44 62 -82 66 -85 4 -3 11 -12 16
-21 5 -9 23 -34 41 -55 18 -21 60 -75 95 -119 35 -44 67 -85 73 -91 5 -6 28
-32 50 -59 22 -26 45 -53 50 -59 6 -6 37 -43 70 -81 33 -39 74 -86 92 -105 17
-19 41 -46 53 -60 96 -113 323 -347 368 -379 l30 -21 -4 55 c-2 30 -15 78 -28
107 -13 29 -38 87 -56 128 -30 70 -42 97 -92 210 -11 25 -29 64 -39 88 -46
102 -63 140 -85 190 -13 29 -24 54 -24 57 0 2 -18 43 -41 92 -22 48 -46 102
-54 118 -24 56 -55 125 -76 173 -12 26 -31 67 -42 92 -11 25 -21 47 -21 50 -1
3 -9 21 -18 40 -9 19 -26 58 -38 85 -12 28 -35 78 -51 113 -16 35 -29 65 -29
66 0 2 -12 30 -27 62 -14 33 -27 64 -29 69 -1 6 -16 42 -34 80 -66 146 -73
160 -75 170 -1 6 -14 36 -28 69 -15 32 -27 60 -27 63 0 2 -12 30 -26 61 -39
85 -47 104 -108 257 -31 77 -61 149 -66 160 -25 56 -70 168 -70 176 0 5 -9 28
-19 52 -30 65 -109 272 -117 304 -4 15 -13 37 -21 49 -7 11 -10 24 -7 27 4 4
2 12 -3 19 -6 7 -21 47 -33 88 -13 41 -27 79 -32 85 -4 5 -8 16 -8 25 0 8 -13
56 -30 106 -16 51 -31 100 -33 110 -2 11 -7 26 -10 34 -5 13 -21 73 -33 120
-2 8 -10 40 -18 70 -8 30 -17 66 -20 80 -3 14 -11 50 -19 80 -9 30 -18 73 -22
95 -8 46 -13 70 -15 70 -1 0 -3 9 -4 20 -2 11 -9 49 -16 85 -7 36 -14 74 -15
85 -2 11 -11 65 -20 120 -9 55 -18 120 -21 145 -2 25 -6 61 -9 80 -3 19 -7 61
-10 93 -11 123 -17 172 -21 176 -2 2 1 10 7 18 6 7 8 13 3 13 -23 0 -21 633 2
788 21 147 36 228 54 297 12 44 23 87 25 95 8 34 58 176 65 185 4 6 11 21 15
35 9 30 87 193 96 200 4 3 16 23 28 45 25 47 44 78 51 85 3 3 17 21 30 40 42
60 53 73 133 155 43 44 95 91 115 105 20 14 39 27 42 31 21 25 227 124 280
134 8 2 15 4 15 5 0 3 30 9 120 25 84 15 305 22 343 11 9 -2 40 -7 67 -11 65
-7 166 -25 185 -32 17 -7 25 -9 60 -16 14 -3 41 -11 60 -17 19 -6 42 -13 50
-15 8 -2 80 -25 160 -50 175 -57 267 -84 299 -91 14 -3 28 -7 33 -10 6 -4 46
-16 138 -39 8 -3 49 -14 90 -26 41 -11 86 -23 100 -26 14 -2 32 -7 40 -10 13
-5 31 -10 65 -17 6 -1 16 -5 23 -9 6 -5 12 -6 12 -4 0 3 37 -4 83 -15 45 -10
91 -21 102 -23 11 -2 31 -6 45 -9 14 -3 43 -10 65 -14 36 -8 50 -11 58 -13 1
0 18 -2 37 -5 19 -2 59 -9 89 -15 30 -6 64 -12 75 -14 12 -1 41 -5 66 -9 54
-8 96 -13 170 -21 30 -3 75 -8 100 -11 67 -9 141 -14 285 -18 72 -3 132 -6
135 -7 3 -1 8 -1 11 -1 3 1 50 3 105 6 170 10 184 13 180 44 -3 15 -45 36
-191 92 -107 41 -199 81 -205 89 -3 3 -25 17 -50 30 -25 13 -52 30 -61 37 -8
8 -20 14 -26 14 -6 0 -13 4 -15 8 -1 5 -43 35 -93 67 -197 128 -230 150 -233
157 -2 5 -10 8 -18 8 -8 0 -14 3 -14 8 0 4 -20 18 -45 32 -25 14 -45 28 -45
32 0 5 -7 8 -15 8 -8 0 -15 5 -15 10 0 6 -4 10 -9 10 -4 0 -63 37 -130 83 -68
45 -133 89 -146 97 -13 8 -89 60 -169 115 -80 55 -160 110 -178 123 -18 12
-42 29 -53 37 -394 281 -783 545 -804 545 -6 0 -11 5 -11 10 0 6 -5 10 -11 10
-6 0 -23 8 -37 18 -42 30 -273 154 -292 157 -3 1 -36 16 -74 33 -38 18 -70 32
-71 32 -1 0 -20 7 -41 16 -22 9 -41 16 -44 16 -3 0 -11 4 -17 10 -7 6 -13 7
-13 3 0 -4 -6 -3 -12 2 -7 6 -37 16 -65 24 -29 7 -53 15 -53 19 0 3 -8 6 -17
7 -10 0 -27 3 -38 7 -38 10 -144 36 -172 40 -15 3 -45 8 -67 11 -21 4 -48 8
-59 10 -69 14 -451 28 -461 18z"/>
<path d="M9317 8284 c-3 -3 -47 -7 -97 -10 -51 -2 -113 -6 -139 -9 -25 -3 -66
-8 -91 -11 -25 -3 -61 -7 -80 -10 -19 -3 -51 -7 -70 -10 -19 -2 -57 -9 -85
-14 -27 -6 -66 -13 -85 -16 -41 -6 -65 -11 -100 -19 -25 -5 -51 -10 -105 -21
-26 -5 -185 -40 -468 -104 -48 -11 -98 -22 -110 -24 -12 -3 -22 -5 -22 -6 0
-1 -9 -3 -20 -5 -32 -7 -108 -23 -130 -28 -11 -3 -40 -8 -65 -13 -51 -9 -59
-11 -62 -14 -2 -1 -16 -3 -33 -4 -16 -2 -39 -6 -50 -9 -11 -4 -38 -9 -60 -12
-22 -2 -51 -7 -65 -10 -73 -15 -152 -25 -161 -20 -5 4 -9 2 -9 -4 0 -5 -8 -9
-17 -9 -10 0 -38 -2 -63 -6 -69 -10 -168 -20 -320 -31 -184 -15 -546 -9 -690
10 -19 3 -55 7 -80 10 -25 3 -70 10 -100 15 -30 5 -71 12 -90 15 -19 3 -42 8
-50 10 -8 2 -44 7 -80 10 -36 3 -85 8 -109 11 -25 3 -47 5 -50 6 -3 0 -17 0
-31 -1 -23 -1 -22 -3 20 -41 25 -22 79 -63 120 -90 41 -28 80 -53 86 -58 5 -4
23 -14 40 -23 110 -58 140 -75 145 -82 3 -5 10 -8 15 -8 5 0 50 -19 99 -43
110 -54 306 -136 335 -142 25 -4 67 -18 75 -25 6 -4 22 -9 35 -11 14 -2 30 -7
36 -10 6 -4 22 -9 37 -12 15 -2 30 -7 35 -10 5 -3 19 -7 33 -9 13 -3 53 -12
89 -20 77 -19 135 -30 206 -41 22 -4 46 -8 54 -11 8 -2 35 -6 60 -9 25 -3 54
-8 65 -10 30 -6 175 -28 210 -32 77 -8 122 -14 150 -20 39 -7 68 -11 134 -19
29 -4 63 -8 75 -10 11 -2 44 -7 71 -11 74 -10 75 -10 135 -19 30 -4 62 -9 70
-10 8 -2 51 -8 95 -15 75 -11 102 -15 150 -25 11 -2 31 -6 45 -9 177 -34 346
-136 442 -266 53 -71 106 -195 124 -285 4 -22 9 -47 10 -55 10 -49 18 -192 17
-302 -1 -138 -9 -188 -54 -348 -17 -58 -32 -116 -35 -130 -2 -14 -7 -32 -11
-40 -3 -8 -8 -22 -10 -30 -2 -8 -5 -22 -8 -30 -2 -8 -4 -15 -5 -15 -1 0 -3 -7
-5 -15 -1 -8 -17 -62 -35 -120 -17 -58 -33 -109 -34 -115 -8 -30 -29 -105 -38
-135 -11 -37 -19 -64 -20 -67 0 -1 -6 -22 -13 -45 -70 -222 -87 -275 -90 -288
-2 -8 -8 -27 -14 -42 -6 -16 -8 -28 -5 -28 4 0 2 -6 -4 -12 -5 -7 -17 -40 -25
-73 -9 -33 -20 -71 -25 -85 -5 -14 -10 -27 -11 -30 0 -3 -16 -50 -34 -105 -19
-55 -35 -104 -37 -110 -1 -5 -6 -20 -11 -33 -5 -12 -11 -34 -13 -47 -3 -14 -8
-30 -13 -37 -4 -7 -9 -22 -11 -33 -5 -26 -7 -35 -16 -60 -5 -11 -14 -37 -22
-57 -8 -21 -11 -38 -8 -38 4 0 1 -6 -5 -13 -6 -8 -12 -22 -14 -33 -4 -22 -36
-132 -44 -154 -3 -8 -7 -19 -8 -25 -2 -5 -8 -30 -16 -55 -7 -25 -14 -51 -15
-58 -1 -8 -6 -21 -10 -30 -4 -9 -8 -24 -9 -32 -1 -8 -17 -68 -35 -134 -17 -65
-34 -129 -36 -142 -2 -13 -9 -36 -15 -51 -6 -16 -10 -29 -10 -30 1 -2 1 -4 0
-5 -1 -2 -2 -14 -4 -28 -2 -14 -11 -54 -20 -90 -16 -66 -64 -285 -71 -330 -5
-28 -12 -63 -20 -100 -3 -14 -7 -39 -9 -57 -2 -18 -7 -43 -11 -55 -4 -13 -8
-39 -10 -58 -1 -19 -3 -35 -4 -35 -3 0 -10 -38 -15 -85 -3 -25 -7 -56 -10 -70
-4 -14 -8 -45 -10 -70 -3 -25 -8 -63 -11 -85 -9 -63 -14 -96 -19 -150 -2 -27
-7 -66 -10 -85 -3 -19 -7 -65 -10 -102 -2 -37 -7 -86 -10 -110 -5 -43 -14
-181 -20 -318 -5 -102 -5 -632 -1 -700 3 -30 7 -84 10 -120 17 -179 26 -271
31 -315 2 -16 4 -44 4 -61 1 -27 5 -31 26 -31 23 0 42 12 44 30 1 4 1 8 2 10
0 1 2 9 4 17 1 8 13 53 25 100 12 47 24 92 26 100 13 52 26 107 29 120 2 8 10
42 18 75 9 33 18 71 21 85 3 14 13 54 21 90 8 36 18 76 21 89 3 13 16 69 30
125 15 55 28 112 31 126 3 23 17 70 31 110 3 8 6 23 7 33 2 9 3 18 5 20 1 1 3
9 5 17 13 61 99 337 122 393 9 21 16 44 16 52 0 8 4 15 9 15 4 0 8 6 8 14 0
12 20 63 71 184 5 12 13 32 18 45 5 12 14 36 22 52 7 17 13 32 14 35 7 22 220
539 249 605 13 28 34 77 47 110 13 33 28 63 34 67 5 4 6 8 2 8 -4 0 -2 10 5
23 7 12 13 24 13 27 1 8 85 201 106 243 10 21 19 44 19 52 0 8 4 15 8 15 5 0
9 6 9 13 0 6 9 32 21 57 56 124 89 196 91 202 1 4 8 23 16 42 8 20 15 40 15
46 0 5 5 10 10 10 6 0 10 8 10 18 0 10 3 22 8 26 4 4 7 11 8 14 0 4 17 42 37
86 20 43 37 80 37 82 0 1 13 31 29 66 16 35 43 97 61 138 18 41 46 104 62 140
31 67 49 111 50 120 0 3 5 11 11 19 6 7 12 18 13 25 1 6 17 45 37 86 19 41 45
98 57 125 12 28 30 68 40 90 10 22 33 74 50 115 18 41 43 98 56 127 21 46 44
99 49 113 2 6 28 65 55 125 36 81 198 492 224 570 15 44 31 89 36 100 5 11 28
81 50 155 23 74 46 143 51 152 5 10 9 28 9 41 0 13 3 27 7 31 4 3 8 12 9 19 4
16 8 34 39 152 26 101 59 245 69 300 2 17 7 41 10 54 3 14 8 45 11 70 3 25 9
62 14 81 4 20 7 43 5 53 -1 9 1 17 4 17 4 0 7 15 8 33 1 35 12 151 20 207 6
48 6 256 -1 305 -13 100 -17 119 -26 144 -6 14 -10 26 -9 26 5 0 -14 62 -23
73 -5 6 -7 12 -3 12 10 0 -54 121 -93 175 -87 121 -209 208 -356 255 -22 7
-42 13 -45 13 -3 0 -14 3 -26 7 -21 8 -100 20 -162 25 -18 2 -35 5 -38 8 -3 2
-21 1 -40 -3 -18 -4 -34 -4 -34 0 0 8 -44 5 -59 -5 -6 -3 -11 -1 -11 6 0 10
-3 10 -12 1 -7 -7 -17 -8 -28 -2 -10 5 -20 7 -23 4z"/>
<path d="M5457 5523 c-2 -1 -19 -5 -38 -8 -69 -10 -176 -42 -199 -60 -8 -6
-28 -17 -45 -25 -44 -22 -51 -28 -136 -112 -43 -43 -81 -88 -85 -100 -3 -13
-13 -30 -20 -39 -8 -9 -16 -25 -18 -35 -3 -11 -12 -36 -20 -56 -9 -21 -13 -38
-10 -38 4 0 2 -6 -3 -12 -11 -16 -17 -69 -17 -163 0 -140 24 -228 95 -347 40
-68 162 -198 186 -198 7 0 13 -4 13 -9 0 -16 163 -82 239 -97 93 -18 171 -17
274 3 72 13 204 63 217 82 3 4 21 17 40 29 19 11 47 34 62 49 61 61 88 92 88
97 0 3 14 27 30 53 81 127 108 341 65 503 -3 14 -7 30 -9 35 -1 6 -10 27 -19
49 -9 21 -17 41 -17 43 0 3 -13 25 -30 50 -16 24 -30 47 -30 50 0 24 -204 190
-241 197 -8 1 -23 7 -34 13 -42 23 -164 46 -248 48 -48 1 -89 0 -90 -2z"/>
<path d="M5260 3879 c-83 -15 -98 -19 -144 -39 -26 -11 -47 -19 -49 -18 -8 6
-142 -96 -192 -146 -79 -79 -156 -182 -170 -225 -3 -12 -11 -21 -16 -21 -5 0
-9 -9 -9 -19 0 -11 -3 -21 -7 -23 -14 -6 -150 -312 -157 -353 -1 -5 -4 -14 -7
-20 -4 -5 -10 -23 -14 -40 -10 -36 -9 -31 -24 -80 -33 -106 -61 -220 -64 -257
-1 -10 -4 -18 -7 -18 -3 0 -6 -8 -6 -17 -1 -22 -11 -78 -23 -135 -6 -24 -13
-65 -16 -93 -4 -27 -8 -57 -10 -65 -2 -8 -7 -37 -10 -65 -3 -27 -8 -66 -11
-85 -3 -19 -7 -55 -10 -80 -2 -25 -6 -58 -9 -75 -2 -16 -7 -68 -10 -115 -4
-47 -9 -96 -12 -110 -3 -14 -6 -136 -8 -272 -2 -214 0 -248 13 -253 8 -3 18
-2 22 2 7 8 40 126 42 151 1 6 4 12 8 12 4 0 12 19 19 42 7 23 18 53 24 67 6
14 11 29 12 34 2 4 4 10 5 15 1 4 2 10 1 15 0 4 3 7 7 7 5 0 9 6 9 13 0 7 14
51 32 97 18 47 34 90 35 95 1 6 15 44 31 85 15 41 28 80 28 87 0 7 4 13 9 13
4 0 8 7 8 15 0 8 4 23 9 33 8 15 21 46 26 62 1 3 9 23 19 45 10 22 25 58 33
80 30 76 163 327 195 368 37 49 138 153 138 144 0 -4 9 2 20 13 11 11 27 20
35 20 8 0 15 3 15 8 0 9 101 48 158 61 61 13 198 6 273 -14 89 -25 212 -83
305 -145 43 -29 81 -56 84 -59 3 -3 25 -22 50 -41 54 -41 127 -109 184 -169
22 -24 55 -58 71 -75 71 -73 275 -319 275 -331 0 -3 11 -18 24 -33 14 -15 35
-43 48 -62 14 -19 44 -64 68 -100 25 -36 48 -66 52 -68 5 -2 8 -8 8 -13 0 -6
18 -37 40 -69 22 -32 40 -64 40 -69 0 -6 4 -11 9 -11 5 0 11 -8 15 -17 3 -10
15 -31 26 -48 11 -16 24 -39 30 -50 6 -11 24 -42 40 -70 17 -27 33 -57 37 -65
3 -8 13 -23 21 -32 8 -10 11 -18 6 -18 -5 0 -4 -4 1 -8 13 -9 35 -47 92 -162
27 -52 51 -97 54 -100 3 -3 38 -70 78 -149 40 -80 96 -179 125 -220 l51 -76 3
70 c2 39 -2 88 -9 110 -7 22 -13 45 -14 50 -1 16 -26 98 -36 120 -5 11 -13 38
-18 60 -5 22 -30 114 -56 204 -26 90 -48 171 -50 180 -2 9 -10 35 -19 59 -8
23 -15 43 -15 45 1 1 -5 22 -12 47 -14 51 -17 63 -23 88 -3 9 -5 18 -6 20 -2
1 -4 7 -5 12 -1 6 -3 11 -5 13 -1 1 -3 10 -5 21 -2 10 -20 71 -41 135 -20 64
-38 123 -39 131 -2 8 -4 15 -5 15 -1 0 -3 7 -5 15 -2 8 -33 101 -69 205 -37
105 -68 195 -70 200 -2 6 -8 23 -14 38 -7 16 -12 30 -12 33 0 6 -35 86 -76
172 -19 40 -34 79 -34 87 0 8 -4 15 -9 15 -5 0 -13 10 -17 23 -3 12 -28 60
-55 105 -27 46 -49 88 -49 93 0 5 -4 9 -10 9 -5 0 -10 6 -10 13 0 7 -9 23 -20
35 -11 12 -20 25 -20 29 0 13 -168 233 -236 310 -72 81 -159 168 -238 236 -33
29 -67 60 -77 69 -47 45 -276 187 -304 188 -3 1 -25 9 -50 20 -25 11 -45 17
-45 13 0 -3 -7 0 -15 7 -8 7 -15 10 -15 7 0 -3 -17 -1 -37 4 -53 14 -180 18
-233 8z"/>
</g>
</svg>
