<svg width="17" height="98" viewBox="0 0 17 98" fill="none" xmlns="http://www.w3.org/2000/svg">
<path d="M14.9222 0L13.9778 69.8915H3.02222L2.07778 0H14.9222ZM8.5 98C6.17037 98 4.1713 97.1612 2.50278 95.4835C0.83426 93.8059 0 91.7959 0 89.4535C0 87.1111 0.83426 85.1011 2.50278 83.4235C4.1713 81.7458 6.17037 80.907 8.5 80.907C10.8296 80.907 12.8287 81.7458 14.4972 83.4235C16.1657 85.1011 17 87.1111 17 89.4535C17 91.0045 16.6065 92.4289 15.8194 93.7267C15.0639 95.0246 14.0407 96.0691 12.75 96.8605C11.4907 97.6202 10.0741 98 8.5 98Z" fill="#9CB0C9"/>
</svg>
