<svg aria-hidden="true" style="position: absolute; width: 0; height: 0; overflow: hidden;" version="1.1" xmlns="http://www.w3.org/2000/svg" xmlns:xlink="http://www.w3.org/1999/xlink">
<defs>
<symbol id="icon-telegram" viewBox="0 0 32 32">
  <path fill="#28A7E8" style="fill: var(--color1, #28A7E8)" d="M16 0c-4.242 0-8.315 1.687-11.313 4.686-3.001 3.001-4.687 7.070-4.688 11.314 0 4.242 1.688 8.314 4.688 11.314 2.998 3 7.070 4.686 11.313 4.686s8.315-1.687 11.313-4.686c3-2.999 4.687-7.072 4.687-11.314s-1.687-8.314-4.687-11.314c-2.998-2.999-7.070-4.686-11.313-4.686z"></path>
  <path fill="#fff" style="fill: var(--color2, #fff)" d="M7.242 15.831c4.665-2.032 7.775-3.372 9.33-4.019 4.445-1.848 5.367-2.169 5.97-2.18 0.132-0.002 0.427 0.031 0.62 0.186 0.16 0.131 0.205 0.309 0.227 0.433 0.020 0.125 0.048 0.408 0.025 0.63-0.24 2.53-1.282 8.669-1.812 11.503-0.223 1.199-0.665 1.601-1.093 1.64-0.93 0.086-1.635-0.614-2.535-1.204-1.407-0.923-2.202-1.498-3.57-2.399-1.58-1.041-0.555-1.613 0.345-2.548 0.235-0.245 4.33-3.969 4.408-4.306 0.010-0.042 0.020-0.2-0.075-0.283-0.093-0.083-0.23-0.055-0.33-0.032-0.143 0.032-2.39 1.519-6.75 4.461-0.638 0.439-1.215 0.652-1.735 0.641-0.57-0.012-1.67-0.323-2.488-0.588-1-0.326-1.797-0.498-1.727-1.051 0.035-0.288 0.433-0.583 1.19-0.884z"></path>
</symbol>
</defs>
</svg>
