<svg aria-hidden="true" style="position: absolute; width: 0; height: 0; overflow: hidden;" version="1.1" xmlns="http://www.w3.org/2000/svg" xmlns:xlink="http://www.w3.org/1999/xlink">
<defs>
<symbol id="icon-chevron-up" viewBox="0 0 32 32">
  <path d="M5.099 10.545c0.213-0.213 0.501-0.332 0.802-0.332s0.589 0.12 0.802 0.332l9.41 9.41 9.411-9.41c0.214-0.207 0.501-0.321 0.798-0.319s0.582 0.122 0.793 0.332c0.21 0.21 0.33 0.495 0.332 0.793s-0.112 0.584-0.319 0.798l-10.213 10.213c-0.213 0.213-0.501 0.332-0.802 0.332s-0.589-0.119-0.802-0.332l-10.213-10.213c-0.213-0.213-0.332-0.501-0.332-0.802s0.12-0.589 0.332-0.802z"></path>
</symbol>
<symbol id="icon-fb" viewBox="0 0 32 32">
  <path d="M23.39 17.864l0.881-5.748h-5.515v-3.73c0-1.572 0.77-3.105 3.24-3.105h2.507v-4.893c0 0-2.276-0.388-4.451-0.388-4.542 0-7.51 2.753-7.51 7.736v4.381h-5.049v5.748h5.049v13.894c1.012 0.159 2.050 0.242 3.107 0.242s2.095-0.083 3.107-0.242v-13.894h4.633z"></path>
</symbol>
<symbol id="icon-geo" viewBox="0 0 32 32">
  <path d="M16 32c0 0 10.667-10.108 10.667-17.778 0-2.829-1.124-5.542-3.124-7.542s-4.714-3.124-7.543-3.124c-2.829 0-5.542 1.124-7.542 3.124s-3.124 4.713-3.124 7.542c0 7.669 10.667 17.778 10.667 17.778zM16 19.556c-1.415 0-2.771-0.562-3.771-1.562s-1.562-2.357-1.562-3.771c0-1.415 0.562-2.771 1.562-3.771s2.357-1.562 3.771-1.562c1.415 0 2.771 0.562 3.771 1.562s1.562 2.357 1.562 3.771c0 1.415-0.562 2.771-1.562 3.771s-2.357 1.562-3.771 1.562z"></path>
</symbol>
<symbol id="icon-insta" viewBox="0 0 32 32">
  <path d="M16 7.784c-4.538 0-8.216 3.679-8.216 8.216s3.679 8.216 8.216 8.216c4.538 0 8.216-3.678 8.216-8.216s-3.678-8.216-8.216-8.216zM16 21.333c-2.946 0-5.333-2.388-5.333-5.333s2.388-5.333 5.333-5.333c2.945 0 5.333 2.388 5.333 5.333s-2.388 5.333-5.333 5.333z"></path>
  <path d="M24.541 9.379c1.060 0 1.92-0.86 1.92-1.92s-0.86-1.92-1.92-1.92-1.92 0.86-1.92 1.92c0 1.060 0.86 1.92 1.92 1.92z"></path>
  <path d="M16 0c-4.345 0-4.89 0.018-6.597 0.096-1.703 0.078-2.866 0.348-3.884 0.744-1.052 0.409-1.944 0.956-2.834 1.845s-1.437 1.782-1.845 2.834c-0.396 1.018-0.666 2.181-0.744 3.884-0.078 1.707-0.096 2.252-0.096 6.597s0.018 4.89 0.096 6.597c0.078 1.703 0.348 2.866 0.744 3.884 0.409 1.052 0.956 1.944 1.845 2.834s1.782 1.436 2.834 1.845c1.018 0.395 2.181 0.666 3.884 0.744 1.707 0.078 2.252 0.096 6.597 0.096s4.89-0.018 6.597-0.096c1.703-0.078 2.866-0.348 3.884-0.744 1.052-0.409 1.944-0.956 2.834-1.845s1.436-1.782 1.845-2.834c0.395-1.018 0.666-2.181 0.744-3.884 0.078-1.707 0.096-2.252 0.096-6.597s-0.018-4.89-0.096-6.597c-0.078-1.703-0.348-2.866-0.744-3.884-0.409-1.052-0.956-1.944-1.845-2.834s-1.782-1.437-2.834-1.845c-1.018-0.396-2.181-0.666-3.884-0.744-1.707-0.078-2.252-0.096-6.597-0.096zM16 2.883c4.272 0 4.778 0.016 6.465 0.093 1.56 0.071 2.407 0.332 2.971 0.551 0.747 0.29 1.28 0.637 1.84 1.197s0.907 1.093 1.197 1.84c0.219 0.564 0.48 1.411 0.551 2.971 0.077 1.687 0.093 2.193 0.093 6.465s-0.016 4.778-0.093 6.465c-0.071 1.56-0.332 2.407-0.551 2.971-0.29 0.747-0.637 1.28-1.197 1.84s-1.093 0.907-1.84 1.197c-0.564 0.219-1.411 0.48-2.971 0.551-1.687 0.077-2.193 0.093-6.465 0.093s-4.778-0.016-6.465-0.093c-1.56-0.071-2.407-0.332-2.971-0.551-0.747-0.29-1.28-0.637-1.84-1.197s-0.907-1.093-1.197-1.84c-0.219-0.564-0.48-1.411-0.551-2.971-0.077-1.687-0.093-2.193-0.093-6.465s0.016-4.778 0.093-6.465c0.071-1.56 0.332-2.407 0.551-2.971 0.29-0.747 0.637-1.28 1.197-1.84s1.093-0.907 1.84-1.197c0.564-0.219 1.411-0.48 2.971-0.551 1.687-0.077 2.193-0.093 6.465-0.093z"></path>
</symbol>
<symbol id="icon-mail" viewBox="0 0 32 32">
  <path d="M4 5.6c-0.947 0-1.714 0.781-1.714 1.745v17.455c0 0.964 0.768 1.745 1.714 1.745h24c0.947 0 1.714-0.782 1.714-1.745v-17.455c0-0.964-0.767-1.745-1.714-1.745h-24zM0 7.345c0-2.249 1.791-4.073 4-4.073h24c2.209 0 4 1.823 4 4.073v17.455c0 2.249-1.791 4.073-4 4.073h-24c-2.209 0-4-1.823-4-4.073v-17.455z"></path>
  <path d="M6.211 9.386c0.339-0.436 0.967-0.514 1.403-0.175l8.386 6.523 8.386-6.523c0.436-0.339 1.064-0.261 1.403 0.175s0.26 1.064-0.175 1.403l-9 7c-0.361 0.281-0.867 0.281-1.228 0l-9-7c-0.436-0.339-0.514-0.967-0.175-1.403z"></path>
</symbol>
<symbol id="icon-time" viewBox="0 0 32 32">
  <path d="M16 2.667c7.364 0 13.333 5.969 13.333 13.333s-5.969 13.333-13.333 13.333c-7.364 0-13.333-5.969-13.333-13.333s5.969-13.333 13.333-13.333zM16 8c-0.354 0-0.693 0.14-0.943 0.391s-0.391 0.589-0.391 0.943v6.667c0 0.354 0.141 0.693 0.391 0.943l4 4c0.251 0.243 0.588 0.377 0.938 0.374s0.684-0.143 0.931-0.391c0.247-0.247 0.387-0.582 0.391-0.931s-0.131-0.686-0.374-0.938l-3.609-3.609v-6.115c0-0.354-0.141-0.693-0.391-0.943s-0.589-0.391-0.943-0.391z"></path>
</symbol>
</defs>
</svg>
