<svg width="48" height="48" viewBox="0 0 48 48" fill="none" xmlns="http://www.w3.org/2000/svg">
<g clip-path="url(#clip0_432_2066)">
<path d="M24 0C17.6363 0 11.5275 2.53013 7.03125 7.02938C2.53036 11.5304 0.00124676 17.6347 0 24C0 30.3626 2.53125 36.4714 7.03125 40.9706C11.5275 45.4699 17.6363 48 24 48C30.3637 48 36.4725 45.4699 40.9688 40.9706C45.4688 36.4714 48 30.3626 48 24C48 17.6374 45.4688 11.5286 40.9688 7.02938C36.4725 2.53013 30.3637 0 24 0Z" fill="url(#paint0_linear_432_2066)"/>
<path d="M10.8637 23.7465C17.8612 20.6985 22.5262 18.6889 24.8587 17.718C31.5262 14.9456 32.9099 14.4641 33.8137 14.4478C34.0124 14.4446 34.4549 14.4937 34.7437 14.7272C34.9837 14.9241 35.0512 15.1903 35.0849 15.3772C35.1149 15.564 35.1562 15.9896 35.1224 16.3219C34.7624 20.1169 33.1987 29.3261 32.4037 33.5767C32.0699 35.3752 31.4062 35.9782 30.7649 36.0371C29.3699 36.1654 28.3124 35.1161 26.9624 34.2315C24.8512 32.8466 23.6587 31.9849 21.6074 30.6337C19.2374 29.0722 20.7749 28.2139 22.1249 26.8114C22.4774 26.4442 28.6199 20.8586 28.7362 20.352C28.7512 20.2886 28.7662 20.0524 28.6237 19.9279C28.4849 19.803 28.2787 19.8457 28.1287 19.8795C27.9149 19.9275 24.5437 22.158 18.0037 26.5706C17.0474 27.2284 16.1812 27.549 15.4012 27.5321C14.5462 27.5137 12.8962 27.0476 11.6699 26.6494C10.1699 26.1607 8.97369 25.9024 9.07869 25.0725C9.13119 24.6405 9.72744 24.1984 10.8637 23.7465Z" fill="white"/>
</g>
<defs>
<linearGradient id="paint0_linear_432_2066" x1="2400" y1="0" x2="2400" y2="4800" gradientUnits="userSpaceOnUse">
<stop stop-color="#2AABEE"/>
<stop offset="1" stop-color="#229ED9"/>
</linearGradient>
<clipPath id="clip0_432_2066">
<rect width="48" height="48" fill="white"/>
</clipPath>
</defs>
</svg>
