<svg width="24" height="24" viewBox="0 0 24 24" fill="none" xmlns="http://www.w3.org/2000/svg">
<path d="M12 0C18.6274 0 24 5.37258 24 12C24 18.6274 18.6274 24 12 24C5.37258 24 0 18.6274 0 12C0 5.37258 5.37258 0 12 0Z" fill="#7F4DA0"/>
<path d="M15.1969 10.4792C15.1386 10.005 14.9928 9.63273 14.734 9.30295C14.398 8.87832 13.9685 8.62404 13.3326 8.4732C12.9183 8.37266 12.7509 8.3842 12.601 8.5211C12.4614 8.64935 12.4341 8.90647 12.5408 9.07298C12.6158 9.19383 12.7024 9.23712 12.9431 9.28437C13.2637 9.34335 13.4852 9.41989 13.6867 9.53511C14.1144 9.78208 14.3136 10.1686 14.3349 10.7942C14.3449 11.088 14.3703 11.1783 14.4729 11.2825C14.6631 11.473 15.0015 11.4359 15.1451 11.208C15.1978 11.1221 15.2058 11.0847 15.2114 10.8852C15.215 10.7617 15.2097 10.5779 15.1969 10.4792V10.4792Z" fill="white"/>
<path d="M16.8721 11.0138C16.7877 9.56114 16.2195 8.39239 15.2026 7.57008C14.6296 7.10802 13.9371 6.7903 13.178 6.63578C12.8999 6.58052 12.3879 6.53573 12.3001 6.56135C12.2172 6.58508 12.1 6.67482 12.0477 6.75598C11.9925 6.84399 11.98 7.0405 12.0271 7.15416C12.1032 7.34417 12.2448 7.4113 12.6411 7.44598C13.2522 7.49944 13.8824 7.71412 14.3586 8.03195C14.9023 8.39381 15.3345 8.88876 15.614 9.47037C15.8556 9.97009 16.0042 10.6902 16.0001 11.3351C15.9987 11.5684 16.0347 11.7001 16.1285 11.7964C16.2701 11.9445 16.4765 11.9768 16.6586 11.8785C16.8605 11.7723 16.9077 11.586 16.8721 11.0138V11.0138Z" fill="white"/>
<path d="M18.7261 16.6082C18.6976 16.5251 18.6313 16.3971 18.584 16.3235C18.2855 15.8729 16.6822 14.6181 15.8817 14.2078C15.4246 13.973 15.0859 13.8947 14.8349 13.9682C14.5649 14.0441 14.4228 14.1698 13.9704 14.732C13.7881 14.9573 13.601 15.1684 13.5512 15.2016C13.4281 15.287 13.1865 15.3558 13.016 15.3558C12.6205 15.3534 11.9029 15.0972 11.351 14.7604C10.9224 14.4995 10.3729 14.0323 9.95136 13.5697C9.45399 13.0266 9.11535 12.5474 8.8477 12.0066C8.50194 11.3117 8.41431 10.8871 8.55876 10.5763C8.59429 10.4981 8.64167 10.4151 8.66296 10.3889C8.68429 10.3653 8.90692 10.1826 9.1532 9.98335C9.63637 9.59912 9.71452 9.51136 9.80451 9.24807C9.91819 8.91361 9.88742 8.57206 9.71216 8.22814C9.57715 7.96722 9.22427 7.39796 8.9685 7.03032C8.62982 6.54646 7.78669 5.5123 7.61851 5.37232C7.31537 5.12566 6.927 5.08294 6.49829 5.24901C6.04597 5.42454 5.19808 6.10764 4.83571 6.58441C4.50888 7.01609 4.3834 7.32206 4.36443 7.72529C4.34787 8.05734 4.37628 8.19492 4.55154 8.61951C5.92281 11.9497 7.96903 14.6086 10.7803 16.7197C12.2486 17.8226 13.7715 18.6623 15.3512 19.2363C16.2724 19.5707 16.6727 19.5873 17.144 19.3122C17.3429 19.1936 17.8356 18.6884 18.1103 18.3207C18.565 17.7087 18.7332 17.4265 18.7805 17.2012C18.8137 17.047 18.7876 16.779 18.7261 16.6082V16.6082Z" fill="white"/>
<path d="M18.5778 11.3475C18.5475 10.5257 18.4092 9.85174 18.1207 9.10027C17.8358 8.36108 17.5476 7.87872 17.0032 7.22631C16.4885 6.6146 16.0888 6.26532 15.4547 5.87653C14.5702 5.33483 13.4937 4.97636 12.2873 4.8256C11.8759 4.77291 11.7828 4.77667 11.6566 4.86089C11.412 5.02044 11.4153 5.41837 11.6606 5.57552C11.7418 5.62551 11.8139 5.64373 12.143 5.6868C12.6482 5.75482 12.973 5.81891 13.3585 5.92408C14.87 6.33727 16.0324 7.18185 16.8094 8.43558C17.4597 9.48057 17.7297 10.5256 17.6914 11.8604C17.678 12.3116 17.6877 12.391 17.7567 12.4994C17.8888 12.7015 18.2371 12.7415 18.4159 12.5738C18.527 12.4716 18.548 12.3949 18.5699 12.0087C18.5804 11.8072 18.5826 11.5098 18.5778 11.3475V11.3475Z" fill="white"/>
</svg>
