<svg width="60" height="60" viewBox="0 0 60 60" fill="none" xmlns="http://www.w3.org/2000/svg">
<g clip-path="url(#clip0_501234_383)">
<path d="M10.9706 20.7094C10.2656 21.5513 9.14058 22.215 8.01558 22.1194C7.87496 20.9813 8.42621 19.7738 9.07121 19.0275C9.77621 18.1631 11.0062 17.55 12.0018 17.4994C12.12 18.6844 11.6625 19.845 10.9725 20.7094H10.9706ZM11.9868 22.3444C10.3593 22.2488 8.96246 23.2819 8.19184 23.2819C7.40434 23.2819 6.22121 22.3913 4.93121 22.4175C3.25684 22.4419 1.69871 23.4 0.843711 24.93C-0.916914 27.9844 0.386211 32.5125 2.08309 35.0006C2.91559 36.2325 3.91309 37.5825 5.22559 37.5356C6.46496 37.4888 6.95809 36.7181 8.45809 36.7181C9.97121 36.7181 10.4025 37.5356 11.7187 37.5131C13.0762 37.4888 13.9312 36.2813 14.7637 35.0475C15.7143 33.6469 16.1006 32.2875 16.1231 32.2144C16.0987 32.19 13.4981 31.185 13.4737 28.1513C13.4512 25.6144 15.5231 24.4069 15.6187 24.3356C14.4487 22.5806 12.6187 22.3913 11.9868 22.3425V22.3444ZM21.3993 18.9094V37.3819H24.2362V31.0669H28.1606C31.7456 31.0669 34.2656 28.5769 34.2656 24.9769C34.2656 21.375 31.7925 18.9094 28.2562 18.9094H21.3993ZM24.2381 21.3281H27.5081C29.9681 21.3281 31.3725 22.6538 31.3725 24.9881C31.3725 27.3225 29.9681 28.6631 27.495 28.6631H24.2343L24.2381 21.3281ZM39.4481 37.5225C41.2312 37.5225 42.8831 36.6131 43.6331 35.1656H43.6912V37.3838H46.3162V28.1888C46.3162 25.5244 44.2068 23.8031 40.9612 23.8031C37.9481 23.8031 35.7243 25.545 35.6418 27.9375H38.1975C38.4075 26.7994 39.45 26.055 40.8806 26.055C42.615 26.055 43.5881 26.8725 43.5881 28.3781V29.3963L40.0481 29.6119C36.7556 29.8125 34.9725 31.1738 34.9725 33.5438C34.9725 35.9363 36.8118 37.5244 39.45 37.5244L39.4481 37.5225ZM40.2093 35.3325C38.6962 35.3325 37.7343 34.5975 37.7343 33.4725C37.7343 32.31 38.6625 31.635 40.4325 31.5281L43.5825 31.3275V32.37C43.5825 34.1006 42.1331 35.3325 40.2093 35.3325ZM49.8206 42.4069C52.5862 42.4069 53.8856 41.34 55.02 38.1038L60 23.9794H57.1181L53.7787 34.8919H53.7206L50.3812 23.9794H47.4168L52.2187 37.4288L51.9618 38.2463C51.5287 39.6319 50.8275 40.1644 49.5712 40.1644C49.3481 40.1644 48.9168 40.14 48.7387 40.1175V42.3356C48.9037 42.3825 49.6068 42.405 49.8206 42.4088V42.4069Z" fill="#757575"/>
</g>
<defs>
<clipPath id="clip0_501234_383">
<rect width="60" height="60" fill="white"/>
</clipPath>
</defs>
</svg>
