<svg width="60" height="60" viewBox="0 0 60 60" fill="none" xmlns="http://www.w3.org/2000/svg">
<g clip-path="url(#clip0_501234_391)">
<path d="M59.9999 24.9994L52.1643 42.4988H49.7437L52.6518 36.3732L47.4993 24.9975H50.0493L53.7749 33.7219H53.8255L57.4462 24.9975L59.9999 24.9994ZM27.4574 30.4144V37.5H24.9993V20.0007H31.5168C31.5637 19.9988 31.6162 19.9988 31.6705 19.9988C33.2287 19.9988 34.6518 20.5725 35.7412 21.5213L35.7337 21.5157C36.8793 22.4588 37.5205 23.8032 37.498 25.2113C37.498 25.2282 37.498 25.2488 37.498 25.2675C37.498 26.745 36.8118 28.0613 35.7412 28.9163L35.7318 28.9238C34.5937 29.9194 33.1874 30.4144 31.5149 30.4144H27.4574ZM27.4518 22.155V28.2657H31.5712C32.4843 28.29 33.3655 27.96 34.003 27.36C34.633 26.7975 34.9912 26.0269 34.9912 25.2207C34.9912 24.4163 34.633 23.6457 34.003 23.0832C33.4012 22.5075 32.5837 22.1532 31.6837 22.1532C31.6443 22.1532 31.603 22.1532 31.5637 22.155H31.5693H27.4518ZM42.4293 24.9994C43.9968 24.9994 45.2343 25.4344 46.1418 26.3044C47.0474 27.1744 47.4993 28.3688 47.4993 29.8838V37.1157H45.4724V35.4863H45.3805C44.503 36.8288 43.3349 37.4982 41.8799 37.4982C40.6349 37.4982 39.5943 37.1157 38.7543 36.3488C37.9818 35.6625 37.498 34.665 37.498 33.5569C37.498 33.5288 37.498 33.4988 37.4999 33.4707V33.4744C37.4999 32.2613 37.9424 31.2975 38.8255 30.5794C39.7087 29.8613 40.888 29.505 42.3637 29.5013C43.6218 29.5013 44.6587 29.7413 45.4705 30.2194V29.7169C45.4705 29.7094 45.4705 29.7 45.4705 29.6907C45.4705 28.9257 45.133 28.2375 44.5987 27.7707L44.5949 27.7688C44.0699 27.27 43.3574 26.9644 42.5737 26.9644C42.5643 26.9644 42.5568 26.9644 42.5474 26.9644H42.5493C41.3643 26.9644 40.4268 27.4838 39.7387 28.5225L37.8712 27.3019C38.8968 25.77 40.4155 25.0013 42.4293 25.0013V24.9994ZM39.688 33.525C39.688 33.5307 39.688 33.5363 39.688 33.5419C39.688 34.1194 39.9637 34.6332 40.3893 34.9594L40.393 34.9632C40.8599 35.3457 41.443 35.5482 42.0412 35.5388C42.9337 35.5369 43.7905 35.1638 44.4243 34.5094C45.073 33.9094 45.4799 33.0525 45.4799 32.1019C45.4799 32.0982 45.4799 32.0944 45.4799 32.0925C44.818 31.5432 43.8974 31.2694 42.7143 31.2694C41.8518 31.2694 41.1337 31.4869 40.5599 31.92C39.9805 32.355 39.6899 32.8875 39.6899 33.5269L39.688 33.525ZM10.2018 20.0007C10.2393 20.0007 10.2824 20.0007 10.3274 20.0007C12.913 20.0007 15.268 20.9907 17.0343 22.6125L17.0268 22.6069L14.1168 25.4625C13.1193 24.5325 11.7768 23.9625 10.3012 23.9625C10.2655 23.9625 10.2318 23.9625 10.1962 23.9644H10.2018C7.55617 23.9813 5.31367 25.6819 4.4868 28.0463L4.47367 28.0894C4.27117 28.6594 4.15305 29.3194 4.15305 30.0038C4.15305 30.6882 4.27117 31.3482 4.4868 31.9594L4.47367 31.9182C5.3118 34.3257 7.55617 36.0263 10.1999 36.0432H10.2018C11.5799 36.0432 12.7593 35.6982 13.6762 35.0907C14.7487 34.3913 15.4837 33.2907 15.7105 32.0475H10.1999V28.1982H19.8224C19.9405 28.8713 19.9968 29.5482 19.9968 30.2307C19.9968 33.2738 18.8868 35.8482 16.9612 37.5882C15.2718 39.1182 12.9505 40.0032 10.198 40.0032C10.1849 40.0032 10.1718 40.0032 10.1568 40.0032C6.23242 40.0032 2.82555 37.7925 1.10992 34.5488L1.08367 34.4925C0.399297 33.1875 -0.00195312 31.6425 -0.00195312 30.0019C-0.00195312 28.3613 0.399297 26.8163 1.10992 25.4569L1.08367 25.5113C2.82555 22.2113 6.23242 20.0007 10.1568 20.0007C10.1718 20.0007 10.1868 20.0007 10.2018 20.0007H10.1999H10.2018Z" fill="#757575"/>
</g>
<defs>
<clipPath id="clip0_501234_391">
<rect width="60" height="60" fill="white"/>
</clipPath>
</defs>
</svg>
