<svg width="60" height="60" viewBox="0 0 60 60" fill="none" xmlns="http://www.w3.org/2000/svg">
<g clip-path="url(#clip0_501234_387)">
<path d="M22.4624 6.48938V50.3588L32.2499 53.5106V16.7175C32.2499 14.9925 33.0093 13.8394 34.2355 14.2406C35.8255 14.6925 36.1349 16.275 36.1349 18.0038V32.6944C42.238 35.6775 47.0399 32.6888 47.0399 24.8119C47.0399 16.7194 44.2255 13.125 35.9455 10.245C32.6774 9.12563 26.6249 7.28063 22.468 6.48938H22.4624ZM34.1024 47.0944L49.843 41.4075C51.6299 40.7625 51.9074 39.8456 50.458 39.3619C48.9936 38.8819 46.3649 39.015 44.5649 39.6694L34.0518 43.4175V37.455L34.6518 37.2431C34.6518 37.2431 37.6536 36.1931 41.9343 35.7056C46.1736 35.2556 51.3974 35.7788 55.5261 37.3575C60.1461 38.8594 60.628 41.0381 59.4655 42.5381C58.303 44.0381 55.4099 45.1275 55.4099 45.1275L34.0499 52.8956V47.1525L34.1024 47.0944ZM4.52052 46.5C-0.228855 45.1369 -1.01448 42.33 1.1399 40.6969C3.1424 39.2344 6.53802 38.07 6.53802 38.07L20.578 33.0375V38.82L10.5149 42.5006C8.7524 43.1775 8.4524 44.0813 9.91677 44.565C11.3811 45.0525 14.0099 44.94 15.7743 44.265L20.6193 42.5006V47.685C20.3174 47.7581 19.9799 47.7956 19.6424 47.8669C14.7974 48.6938 9.65427 48.3563 4.55052 46.6688L4.52052 46.5Z" fill="#757575"/>
</g>
<defs>
<clipPath id="clip0_501234_387">
<rect width="60" height="60" fill="white"/>
</clipPath>
</defs>
</svg>
