<svg width="60" height="60" viewBox="0 0 60 60" fill="none" xmlns="http://www.w3.org/2000/svg">
<g clip-path="url(#clip0_501234_375)">
<path d="M-7.81249e-05 6.87561V19.6012C-7.81249e-05 24.4012 3.35055 27.5756 7.70055 27.5756C9.82492 27.5756 11.7262 26.7506 13.0762 25.3256V27.225H16.1005V6.87561H13.0499V19.425C13.0499 22.65 10.8749 24.825 8.0493 24.825C5.1993 24.825 3.04867 22.7006 3.04867 19.425V6.87561H-0.00195312H-7.81249e-05ZM18.3749 6.87561V27.225H21.2493V25.35C22.5937 26.7244 24.4668 27.5756 26.5387 27.5756C26.5518 27.5756 26.563 27.5756 26.5762 27.5756H26.5743C26.5893 27.5756 26.6062 27.5756 26.6249 27.5756C30.8905 27.5756 34.3499 24.1162 34.3499 19.8506C34.3499 19.8412 34.3499 19.8337 34.3499 19.8244V19.8262C34.3499 19.8187 34.3499 19.8094 34.3499 19.8019C34.3499 15.5362 30.8905 12.0769 26.6249 12.0769C26.608 12.0769 26.5893 12.0769 26.5724 12.0769H26.5743C24.4987 12.0769 22.6499 12.9262 21.2493 14.2762V6.87561H18.3749ZM43.1493 12.0994C38.7487 12.0994 35.5237 15.6244 35.5237 19.8C35.5237 24.225 38.9493 27.5006 43.3987 27.5006C46.0987 27.5006 48.3243 26.3512 49.798 24.375L47.6737 22.8C46.573 24.2756 45.1237 24.9994 43.3987 24.9994C40.8993 24.9994 38.8987 23.175 38.4993 20.775H50.5499V19.8C50.5499 15.3994 47.4243 12.0994 43.1493 12.0994ZM58.6255 12.2756C56.9999 12.2756 55.8262 13.0256 55.1005 14.2256V12.4012H52.1755V27.2269H55.1249V18.7519C55.1249 16.5019 56.5255 15.0019 58.4249 15.0019H59.6493V12.2775H58.6237L58.6255 12.2756ZM43.0743 14.6494C45.2737 14.6494 47.0999 16.1737 47.5987 18.45H38.548C39.073 16.1756 40.8974 14.6494 43.0724 14.6494H43.0743ZM26.3755 14.7C29.1505 14.7 31.4512 16.95 31.4512 19.8244C31.4512 22.6744 29.1505 24.9994 26.3755 24.9994C26.368 24.9994 26.3587 24.9994 26.3493 24.9994C23.533 24.9994 21.2493 22.7156 21.2493 19.8994C21.2493 19.8731 21.2493 19.8469 21.2493 19.8206V19.8244C21.2493 16.95 23.5499 14.7 26.3737 14.7H26.3755ZM-7.81249e-05 32.4V52.7494H14.3005V49.275H3.87555V44.2256H14.0249V40.8506H3.87555V35.8762H14.3005V32.4019H-7.81249e-05V32.4ZM36.3993 33.45V37.725H33.4987V41.1244H36.3993V49.125C36.3993 51.15 37.8243 52.7494 40.3987 52.7494H44.4993V49.35H41.6493C40.7737 49.35 40.2243 48.9506 40.2243 48.15V41.1244H44.4993V37.725H40.2243V33.45H36.3993ZM23.3005 37.35C18.8249 37.35 15.2999 40.8506 15.2999 45.2494C15.2999 49.6237 18.8249 53.1244 23.3005 53.1244C25.1005 53.1244 26.7749 52.5 28.1005 51.3994V52.7494H31.9012V37.725H28.1005V39.075C26.8255 38.0025 25.1643 37.35 23.3512 37.35C23.3343 37.35 23.3155 37.35 23.2987 37.35H23.3005ZM52.5993 37.35C48.6243 37.35 45.8493 38.9756 45.8493 42.15C45.8493 44.325 47.3737 45.75 50.6737 46.4494L54.298 47.2987C55.723 47.5744 56.098 47.9494 56.098 48.5494C56.098 49.4737 54.9974 50.0737 53.2724 50.0737C51.0974 50.0737 49.8468 49.5731 49.348 47.9231H45.523C46.0724 51.0487 48.3974 53.1225 53.1487 53.1225C57.4987 53.1225 59.998 51.0469 59.998 48.1481C59.998 46.0987 58.5487 44.5725 55.4737 43.9237L52.2487 43.2487C50.3737 42.8981 49.7737 42.4987 49.7737 41.8481C49.7737 40.9481 50.6737 40.3987 52.348 40.3987C54.148 40.3987 55.4737 40.8994 55.8487 42.4987H59.6493C59.4487 39.4237 57.1743 37.3481 52.5993 37.3481V37.35ZM23.6249 40.65C26.1505 40.65 28.1755 42.675 28.1755 45.2494C28.1755 47.8237 26.1505 49.8244 23.6249 49.8244C23.6174 49.8244 23.608 49.8244 23.6005 49.8244C21.088 49.8244 19.0499 47.7881 19.0499 45.2737C19.0499 45.2644 19.0499 45.2569 19.0499 45.2475V45.2494C19.0499 42.675 21.1255 40.65 23.6249 40.65Z" fill="#757575"/>
</g>
<defs>
<clipPath id="clip0_501234_375">
<rect width="60" height="60" fill="white"/>
</clipPath>
</defs>
</svg>
