<svg width="48" height="48" viewBox="0 0 48 48" fill="none" xmlns="http://www.w3.org/2000/svg">
<path d="M16.1544 7.82196C15.8419 8.13451 15.6664 8.55835 15.6664 9.00029C15.6664 9.44224 15.8419 9.86608 16.1544 10.1786L29.976 24.0003L16.1544 37.822C15.8508 38.1363 15.6828 38.5573 15.6866 38.9943C15.6904 39.4313 15.8657 39.8493 16.1747 40.1583C16.4837 40.4673 16.9017 40.6426 17.3387 40.6464C17.7757 40.6502 18.1967 40.4822 18.511 40.1786L33.511 25.1786C33.8235 24.8661 33.999 24.4422 33.999 24.0003C33.999 23.5584 33.8235 23.1345 33.511 22.822L18.511 7.82196C18.1985 7.50951 17.7747 7.33398 17.3327 7.33398C16.8908 7.33398 16.4669 7.50951 16.1544 7.82196Z" fill="#9CB0C9"/>
</svg>
