<svg width="56" height="44" viewBox="0 0 56 44" fill="none" xmlns="http://www.w3.org/2000/svg">
<path d="M51.2109 0L55.793 4.04297C52.8581 6.61849 50.4622 9.10417 48.6055 11.5C46.8086 13.8359 45.6706 15.6029 45.1914 16.8008C44.7122 17.9987 44.263 19.4362 43.8438 21.1133L44.2031 21.6523C48.2161 21.6523 51.151 22.5208 53.0078 24.2578C54.8646 25.9948 55.793 28.6901 55.793 32.3438C55.793 35.1589 54.7747 37.7044 52.7383 39.9805C50.7617 42.2565 48.276 43.3945 45.2812 43.3945C41.8672 43.3945 39.0221 42.4362 36.7461 40.5195C34.4701 38.6029 33.332 35.5182 33.332 31.2656C33.332 25.6354 35.069 19.8255 38.543 13.8359C42.0768 7.78646 46.2995 3.17448 51.2109 0ZM17.8789 0L22.4609 4.04297C19.526 6.61849 17.1602 9.07422 15.3633 11.4102C13.5664 13.7461 12.3984 15.543 11.8594 16.8008C11.3802 18.0586 10.931 19.4961 10.5117 21.1133L10.8711 21.6523C14.8841 21.6523 17.819 22.5208 19.6758 24.2578C21.5326 25.9948 22.4609 28.6901 22.4609 32.3438C22.4609 35.1589 21.4427 37.7044 19.4062 39.9805C17.4297 42.2565 14.944 43.3945 11.9492 43.3945C8.53516 43.3945 5.6901 42.4362 3.41406 40.5195C1.13802 38.6029 0 35.5182 0 31.2656C0 25.6354 1.73698 19.8255 5.21094 13.8359C8.74479 7.78646 12.9674 3.17448 17.8789 0Z" fill="#9CB0C9"/>
</svg>
